<svg width="332.221" height="593.008" inkscape:version="1.1.1 (3bf5ae0d25, 2021-09-20)" sodipodi:docname="isometric-map-icons-dungeon-1.svg" version="1.1" viewBox="331.345 4082.437 332.221 593.008" xml:space="preserve" id="svg536" xmlns:inkscape="http://www.inkscape.org/namespaces/inkscape" xmlns:sodipodi="http://sodipodi.sourceforge.net/DTD/sodipodi-0.dtd" xmlns="http://www.w3.org/2000/svg" xmlns:svg="http://www.w3.org/2000/svg" xmlns:rdf="http://www.w3.org/1999/02/22-rdf-syntax-ns#" xmlns:cc="http://creativecommons.org/ns#"><defs id="defs538"/><sodipodi:namedview bordercolor="#ffffff" borderopacity="1" inkscape:current-layer="g8" inkscape:cx="3199.3086" inkscape:cy="2041.5679" inkscape:deskcolor="#cccccc" inkscape:pagecheckerboard="1" inkscape:pageopacity="0" inkscape:showpageshadow="0" inkscape:window-height="1080" inkscape:window-maximized="1" inkscape:window-width="1920" inkscape:window-x="0" inkscape:window-y="0" inkscape:zoom="0.13690458" pagecolor="#999999" showgrid="false" id="namedview2" inkscape:pageshadow="2"/><metadata id="metadata540"><rdf:rdf><cc:license rdf:about="http://creativecommons.org/licenses/by-sa/4.0/"><cc:permits rdf:resource="http://creativecommons.org/ns#Reproduction"/><cc:permits rdf:resource="http://creativecommons.org/ns#Distribution"/><cc:requires rdf:resource="http://creativecommons.org/ns#Notice"/><cc:requires rdf:resource="http://creativecommons.org/ns#Attribution"/><cc:permits rdf:resource="http://creativecommons.org/ns#DerivativeWorks"/><cc:requires rdf:resource="http://creativecommons.org/ns#ShareAlike"/></cc:license><cc:work rdf:about=""><cc:license rdf:resource="http://creativecommons.org/licenses/by-sa/4.0/"/></cc:work></rdf:rdf></metadata><g transform="translate(3401 1556.2)" inkscape:label="dungeon_column" id="g320"><g inkscape:label="dungeon_column_2x2" id="g312"><path d="m-3049.9 2631.7c-0.8345-15.407 1.4909-24.974 8.4203-36.916s15.257-21.464 31.74-31.632c16.483-10.168 33.719-17.194 61.869-23.11 28.15-5.9161 67.469-1.9034 79.464-1.0428 11.995 0.8605 35.116 4.8374 57.727 12.766s40.072 23.08 46.129 29.393c6.0564 6.3135 13.939 19.746 15.282 30.868s1.8699 20.804-3.0559 33.57c-4.9258 12.766-13.066 20.332-13.066 20.332s4.9235 3.5883 7.5972 9.2129c2.6736 5.6245 3.9864 10.327 3.9864 16.438 0 6.1108-2.6602 15.497-4.5114 20.805-1.8511 5.3084-8.1132 13.899-8.1132 13.899s4.7824 2.9086 6.0164 4.5959c1.234 1.6872 5.1265 8.9249 7.0241 18.688 1.8977 9.7633-2.4088 21.608-3.475 24.712s-12.053 22.196-12.053 22.196 6.9502 4.2505 10.632 14.156c3.6817 9.9053 4.4615 18.715 4.2246 23.025-0.2369 4.3104-1.8955 8.3996-3.4796 11.524-1.5842 3.1239-4.851 8.4985-4.851 8.4985s4.7063 5.041 8.2773 13.819c3.5709 8.7783 2.3943 20.903 2.0406 23.367-0.3538 2.4632-4.1903 18.51-8.7128 25.944-4.5224 7.435-5.7553 8.3767-5.7553 8.3767s2.95 0.1741 8.2124 10.492c5.2623 10.318 5.9636 22.897 5.9636 28.089 0 5.1916-2.7263 15.321-4.3859 18.876-1.6595 3.5551-6.8051 10.353-6.8051 10.353s4.6385 1.178 8.7866 12.175c4.148 10.997 0.5977 28.512-0.8296 31.989s-10.455 16.953-18.077 23.972c-7.6225 7.0198-31.285 22.174-45.303 28.774-14.018 6.6002-22.771 9.1574-32.312 12.077-9.5412 2.9195-33.097 5.7169-48.153 6.4178-15.056 0.701-28.243-1.0304-44.49-3.2219-16.246-2.1916-40.369-8.4463-57.622-16.965-17.253-8.5187-28.645-17.917-40.143-29.816-11.498-11.899-14.369-21.56-15.726-26.884-1.3571-5.3246-2.156-12.628 0.2771-19.24 2.4332-6.6119 5.2741-10.324 8.6179-12.726s5.1759-2.9882 6.8349-3.2455c1.6589-0.2572 6.6783 0.4275 6.6783 0.4275s-9.137-10.07-12.588-22.389c-3.4513-12.319-2.595-16.694-1.4904-23.127 1.1046-6.4327 4.2947-10.916 7.5282-13.668 3.2336-2.7513 9.0171-4.8938 9.0171-4.8938s-3.4872-5.061-7.1872-9.0128c-3.6999-3.9518-7.7796-15.612-9.9603-22.014-2.1807-6.4016-2.2205-10.44-0.2031-17.287 2.0173-6.8479 5.4237-9.5066 7.1242-11.306 1.7006-1.7997 9.0725-5.0332 9.0725-5.0332s-3.7344-5.5408-7.158-9.6885c-3.4236-4.1478-9.3738-20.298-9.8755-27.633-0.5018-7.335 0.4819-11.935 2.4294-17.243 1.9475-5.3078 5.9726-7.3789 7.6795-8.5856 1.7069-1.2066 6.8828-4.1597 6.8828-4.1597s-7.4125-9.9385-12.552-21.087c-5.1398-11.149-3.9999-15.748-4.0622-25.052-0.062-9.3035 1.2025-13.826 2.2336-17.305 1.031-3.4792 5.902-12.464 5.902-12.464s-7.3559-10.191-8.9499-22.862c-1.5941-12.672-0.4203-17.495 0.8565-25.059 1.2769-7.564 4.682-15.013 5.1053-16.057 0.4234-1.0441 2.7319-3.9065 2.7319-3.9065s-5.9484-14.789-7.4159-25.196z" fill="#fff" stop-color="#000000" stroke-linecap="round" stroke-linejoin="round" stroke-miterlimit="10" stroke-width="30" style="paint-order:stroke fill markers" inkscape:label="bg" id="path308"/><path d="m-2922.9 3109.4c-48.656-4.0892-89.837-20.028-114.53-44.328-17.916-17.633-26.227-37.754-21.529-52.119 3.4106-10.427 10.694-17.881 17.472-17.881h3.18l-2.8554-4.25c-11.908-17.725-13.378-40.219-3.3908-51.888 1.9408-2.2674 5.0708-4.7669 6.9555-5.5544l3.4268-1.4318-2.3661-2.6794c-1.3013-1.4736-2.6383-2.9083-2.9709-3.188-1.907-1.6039-9.0545-16.616-10.955-23.009-2.8828-9.698-2.7381-16.492 0.4869-22.856 2.6719-5.2726 9.5089-11.841 12.843-12.339 1.9668-0.2937 1.9496-0.4083-0.4952-3.3043-11.297-13.383-17.907-38.011-13.382-49.86 2.0681-5.4153 7.3985-11.073 11.999-12.737l3.4383-1.2433-4.7668-7.0796c-8.7624-13.014-12.064-23.241-12.064-37.369 0-10.124 2.299-19.132 6.5614-25.711 1.4254-2.2 3.7698-6.3191 3.3726-5.2191-4.2664 11.814-6.9877 21.57-6.7165 31.195 0.2825 10.023 0.2827 10.024 1.973 6.9392 2.9049-5.3017 10.417-13.83 13.938-15.824 2.7716-1.5691 2.199-0.6794-3.2177 5-3.6241 3.7998-7.8259 8.8746-9.3374 11.277l-2.748 4.3685 2.1698 6.7482c1.1934 3.7116 3.1852 8.4307 4.4263 10.487l2.2564 3.7387 3.5108-7.3554c4.2477-8.899 10.099-16.456 16.914-21.842 8.2534-6.524 7.4915-4.6192-1.8949 4.737-9.0777 9.0486-16.208 20.291-16.208 25.556 0 5.2951 13.528 18.915 28.378 28.571 4.3331 2.8175 8.2706 5.1227 8.75 5.1227s0.8717-1.3043 0.8717-2.8983c0-4.3174 8.1104-19.668 14.428-27.31 6.0963-7.3732 14.4-14.139 19.562-15.938 3.2995-1.1503 3.2329-1.1889-8.5424-4.9527-13.729-4.3884-35.265-14.852-43.948-21.353-12.868-9.6341-23.681-22.045-29.87-34.281-6.2449-12.348-7.3024-26.506-3.1401-42.042 2.3751-8.8652 5.2019-15.866 6.06-15.008 0.2214 0.2214-0.4707 2.7008-1.5381 5.5097-1.0673 2.809-2.6757 9.42-3.5742 14.691-1.8885 11.079-1.031 21.249 2.6129 30.988 2.2223 5.9394 10.309 18.799 13.818 21.976 1.7372 1.5722 1.5832 0.7808-1.0744-5.5232-5.1646-12.25-7.8847-23.429-8.4823-34.858-0.4012-7.6743-0.1807-11.388 0.8193-13.801 1.2559-3.03 1.3761-2.1677 1.4631 10.5 0.1045 15.219 1.7457 22.529 9.0264 40.205 3.9569 9.606 6.1908 12.392 14.879 18.558 12.232 8.6811 11.834 8.782 6.6224-1.6797-2.5432-5.1051-5.3897-12.207-6.3255-15.782-2.7094-10.351-4.2009-23.903-3.2481-29.515 0.7951-4.6826 0.8888-4.3178 1.5448 6.015 0.8837 13.919 3.8697 26.502 8.7509 36.877 4.8557 10.321 8.0353 14.032 15.039 17.552 5.712 2.8708 24.268 10.071 25.954 10.071 0.5089 0-1.4428-3.5994-4.3372-7.9987-9.6405-14.653-17.071-35.478-17.946-50.295-0.5301-8.9789-0.788-9.8067 3.0507 9.7937 2.8417 14.51 14.325 39.738 21.72 47.717 2.3568 2.543 12.78 5.5964 25.14 7.3645l4.9652 0.7102-4.163-4.9722c-7.8444-9.3693-17.38-31.045-17.211-39.121 0.032-1.4969 1.3198 1.4713 2.8934 6.6663 5.7704 19.05 16.618 36.188 24.55 38.787 3.8987 1.2772 3.8172 1.2981-3.2219 0.8251-3.972-0.2669-12.032-1.4134-17.91-2.5479l-10.688-2.0626-6.8475 4.6786c-8.0438 5.4961-14.317 12.163-20.935 22.248-4.976 7.5832-9.1981 17.354-8.6907 20.111 0.8004 4.3501 37.015 17.563 56.434 20.589l4.1404 0.6454 8.467-11.819c10.624-14.83 17.715-26.167 23.912-38.228 5.1063-9.9387 6.2342-10.706 2.7598-1.8785-3.2469 8.2502-14.805 27.105-24.697 40.287-8.5344 11.374-8.9188 12.099-7.3634 13.896 1.5592 1.801 1.5346 1.8398-0.4926 0.7771-1.1734-0.6151-5.4484-1.6172-9.5-2.227-31.808-4.7873-63.197-19.03-82.897-37.613l-6.9353-6.5425-4.4905 2.6317c-7.08 4.1491-9.8763 9.8657-10.372 21.204-0.3607 8.248-0.1073 10 2.3932 16.549 2.815 7.3728 8.6733 18.236 10.415 19.312 0.5157 0.3187 0.062-1.3989-1.0071-3.817-5.9966-13.556-7.802-35.406-3.4115-41.285 3.0586-4.0954 4.8938-4.1443 2.1197-0.056-4.3369 6.3908-4.2388 17.454 0.2942 33.151 4.3103 14.926 9.5924 22.3 22.756 31.77 4.3961 3.1625 8.2496 5.75 8.5632 5.75 0.3137 0-0.9385-2.2421-2.7825-4.9824-10.482-15.577-16.13-47.349-9.9016-55.7 1.1559-1.5496 2.857-2.966 3.7802-3.1475 1.2537-0.2464 1.0538 0.2948-0.7897 2.1383-3.1832 3.1832-4.0209 7.9324-3.2784 18.587 1.028 14.753 6.9911 31.641 14.7 41.634 3.4341 4.4513 5.4551 5.8527 14.729 10.213 5.9117 2.7797 11.856 5.3853 13.21 5.7902 2.4214 0.7242 2.434 0.6975 0.7797-1.6483-13.759-19.51-20.39-35.079-21.235-49.859l-0.4301-7.525 0.9466 5.9153c2.466 15.41 8.5012 30.855 17.241 44.121 6.5668 9.9679 8.0128 11.041 18.756 13.919 13.63 3.6515 13.709 3.6156 8.1809-3.705-8.0535-10.665-15.083-27.081-17.185-40.135-1.3526-8.3987-0.582-8.0921 1.4773 0.5877 5.2486 22.122 20.012 47.73 27.574 47.829 1.3386 0.017 3.3338 0.753 4.4338 1.6345l2 1.6028-2-0.711c-1.1-0.391-6.05-1.3326-11-2.0923-4.95-0.7598-13.718-2.7153-19.484-4.3456l-10.484-2.9642-7.3991 3.4186c-10.221 4.7225-23.297 13.619-30.652 20.855-9.9637 9.8033-9.9588 9.4817-0.2573 16.679 4.5522 3.3772 8.8058 6.3446 9.4523 6.5941s5.8215-4.2039 11.5-9.8964c5.6785-5.6926 13.474-12.694 17.324-15.56 7.561-5.6273 21.618-13.265 24.328-13.218 0.9197 0.016-1.9278 1.9358-6.3278 4.266s-10.456 5.9083-13.458 7.9512c-6.6731 4.5417-27.756 23.35-29.201 26.05-1.2866 2.404-1.183 2.4836 10.768 8.2793 14.997 7.2729 12.742 7.9414 31.092-9.2196 19.542-18.276 32.299-29.362 32.299-28.07 0 0.5156-35.708 33.867-43.39 40.525-2.1011 1.8214-3.6605 3.4478-3.4652 3.6143 0.5124 0.4369 12.569 4.2566 17.855 5.6565 2.475 0.6556 10.35 2.2584 17.5 3.562l13 2.37-8.2348-0.4748c-9.7823-0.564-28.238-4.5516-40.187-8.6831-7.5597-2.6138-29.738-12.503-31.079-13.857-0.275-0.2779-3.0493-2.1708-6.1652-4.2064s-9.071-6.6714-13.234-10.302l-7.5684-6.6008-3.4891 1.6557c-4.3277 2.0536-8.9703 8.8949-10.575 15.583-0.6799 2.8343-1.0167 8.4862-0.7648 12.837 0.3629 6.27 1.1453 9.2373 4.0456 15.345 4.1784 8.7984 10.232 17.952 14.613 22.095l3.0723 2.9059-3.3977-6.4059c-4.5829-8.6402-7.5198-19.528-8.2263-30.497-0.716-11.116 0.1612-17.59 2.7936-20.616l1.9946-2.2931-1.7961 3.5c-2.6891 5.2402-2.3847 22.72 0.5921 34 2.9304 11.104 8.2315 22.049 12.882 26.597 3.5643 3.4859 15.038 11.673 20.155 14.381l2.4323 1.2872-2.2597-3.3827c-4.8034-7.1906-12.109-23.764-14.054-31.883-2.7719-11.57-2.8002-25.258-0.062-29.75 1.0899-1.7875 2.1787-3.25 2.4197-3.25 0.2409 0-0.2962 1.4625-1.1935 3.25-4.1193 8.2054-0.6283 30.814 7.3628 47.683 7.4842 15.799 9.6229 18.545 17.255 22.151 10.207 4.823 21.414 8.7277 34.121 11.888 20.78 5.1683 19.764 5.5646 10.546-4.1134-14.045-14.745-22.576-33.869-23.131-51.858l-0.2935-9.5 1.3894 9.5c1.7742 12.13 4.667 21.323 10.07 32 5.1308 10.139 7.5553 13.51 15.61 21.701 6.0449 6.1471 6.075 6.2063 3.489 6.8553-1.4364 0.3605-7.4446-0.3134-13.371-1.4999-26.235-5.2523-54.46-17.94-70.762-31.808-3.5338-3.0063-4.4662-3.333-8-2.8035-6.3133 0.946-16.111 6.2613-21.53 11.68-2.7337 2.7337-4.9704 4.5642-4.9704 4.0678 0-1.7713 10.755-11.035 15.75-13.566 2.7966-1.4172 6.9128-2.869 9.1471-3.2262l4.0623-0.6496-4.7297-5.3202c-6.623-7.4498-11.144-7.022-18.666 1.7662-7.6886 8.9825-8.4952 22.031-2.1416 34.648l3.6512 7.2502 5.6112-5.0012c8.8963-7.9291 26.435-16.242 33.722-15.984 2.6589 0.094 2.4828 0.2296-1.2535 0.9644-10.401 2.0454-24.796 9.2881-33.091 16.649l-4.3998 3.9045 4.2898 5.8069c2.3594 3.1938 6.018 7.5351 8.1304 9.6475l3.8406 3.8406 9.2886-6.9853c8.6303-6.4901 30.06-18.126 35.789-19.432 1.375-0.3136-2.7768 2.1145-9.2262 5.3957-12.433 6.3254-29.307 16.821-32.222 20.042-0.9612 1.0622-1.4852 2.3558-1.1644 2.8748 1.0475 1.6949 17.961 12.847 24.383 16.078 14.226 7.1556 55.612 19.067 67.162 19.33 9.22 0.2101 23.103-9.5034 47.46-33.206 7.6412-7.4359 13.315-12.395 12.609-11.02-1.6535 3.2184-21.509 22.82-30.54 30.15-9.303 7.5506-17.137 12.62-20.72 13.406-6.1639 1.3538-0.612 2.4609 15.535 3.0977l16.68 0.6578 5.772-3.8105c7.4211-4.8992 20.944-18.048 27.77-27.002 2.9351-3.85 8.9738-12.8 13.419-19.888 8.311-13.252 10.886-15.382 4.4671-3.6945-11.018 20.06-29.429 42.072-41.884 50.075l-5 3.2126 8.3632-0.6808c4.5997-0.3744 13.765-1.508 20.366-2.519 13.545-2.0743 13.747-2.1996 24.306-15.067 11.051-13.468 16.14-24.41 17.412-37.438 0.7164-7.3407 0.792-7.5435 0.917-2.4601 0.3555 14.452-8.6321 32.551-24.189 48.71-2.2503 2.3375-3.8086 4.25-3.4629 4.25 1.5024 0 18.506-6.3775 25.494-9.5622 8.8831-4.0481 27.657-14.585 31.294-17.564 1.375-1.1261 1.909-1.7392 1.1866-1.3625-0.7224 0.3768 1.6417-3.2967 5.2537-8.1632 9.2734-12.495 13.664-25.498 12.11-35.864-0.7225-4.818-4.6501-10.433-7.3888-10.563-0.9383-0.045-1.1437-0.2896-0.4721-0.5631 0.654-0.2662 2.3027 0.2457 3.6639 1.1376 10.076 6.6018 6.4198 30.291-7.2925 47.254-2.7788 3.4375-4.7477 6.25-4.3754 6.25s3.9556-2.5112 7.9628-5.5805c12.355-9.4629 22.834-22.167 24.135-29.259 0.2685-1.4634 0.4789-5.3608 0.4677-8.6608-0.018-5.3702 0.052-5.5802 0.6701-2l0.6905 4 0.8262-5.8821c1.428-10.166-3.6139-28.715-7.7688-28.58-0.6426 0.021-2.7434 2.0679-4.6684 4.5492-4.5556 5.872-15.126 14.706-24.68 20.628-4.1844 2.5932-8.1056 4.8844-8.7137 5.0916-0.6082 0.2072 0.4179 1.6646 2.2802 3.2386 1.8623 1.5739 3.9998 4.3308 4.75 6.1263 3.0203 7.2287 0.9694 19.91-4.8887 30.229-3.1782 5.5981-15.21 19.1-17.021 19.1-0.5671 0 1.4758-2.6283 4.5399-5.8406 11.434-11.988 17.167-23.729 17.166-35.159-5e-4 -7.6511-2.0437-12.23-6.4813-14.525-2.8895-1.4942-3.3342-1.415-10.733 1.9116-17.449 7.845-40.122 14.613-48.953 14.613-5.4285 0-5.3366-0.5633 0.2342-1.4363 10.983-1.7213 29.5-7.5617 29.5-9.3047 0-2.8903-6.2324-16.866-11.157-25.019-4.2601-7.0528-11.46-16.917-18.738-25.671-1.5533-1.8684-1.5301-1.8799 0.7178-0.3547 8.9237 6.0548 27.317 35.146 30.018 47.478 0.547 2.497 1.3202 3.6979 2.2464 3.4889 0.7767-0.1753 6.2497-2.3771 12.162-4.8927 7.7603-3.3019 10.75-5.0551 10.75-6.3037 0-3.4905-5.2208-17.587-8.533-23.039-8.1684-13.447-16.514-21.18-25.462-23.595-3.5699-0.9634-3.9257-1.2296-1.7148-1.2831 6.1747-0.1494 16.229 6.8578 23.259 16.21 6.0274 8.0183 9.2962 14.447 12.062 23.723 1.4793 4.961 2.6853 7.392 3.5626 7.181 0.7295-0.1754 4.1871-1.9754 7.6836-4l6.3573-3.681-0.5851-5.6839c-1.2178-11.831-9.7804-27.214-18.5-33.237-2.3258-1.6063-6.5688-3.7696-9.4289-4.8072-3.9758-1.4425-4.3818-1.7508-1.7242-1.3093 13.662 2.2695 26.255 16.703 30.704 35.193 0.9056 3.764 1.7875 7.0205 1.9598 7.2366 0.1722 0.2162 3.3039-2.2327 6.9593-5.442l6.6461-5.8349-0.5957-5.6991c-1.6826-16.098-11.132-29.288-24.446-34.125-2.5865-0.9396-3.8028-1.7268-2.7028-1.7492 1.1-0.023 4.7 1.2385 8 2.8022 10.293 4.8773 16.746 14.122 20.235 28.988l1.6193 6.8999 2.1262-2.6161c8.7913-10.817 10.058-15.789 6.5583-25.746-3.4857-9.9175-9.6294-15.808-20.353-19.513-3.5308-1.22-4.3879-1.7992-2.6857-1.8148 3.5294-0.032 11.937 4.0852 16.472 8.067 3.9997 3.5117 9.526 13.744 9.5274 17.641 4e-4 1.2375 0.4184 2.25 0.9288 2.25 1.3885 0 2.3811-10.099 1.8665-18.988-0.6183-10.681-3.1546-14.234-12.554-17.589-2.0575-0.7343-2.9827-1.3549-2.056-1.379 2.8445-0.074 7.1777 1.9522 10.065 4.7068 3.6356 3.4683 3.5712 1.4252-0.1971-6.2507-3.0941-6.3024-5.2826-9.5-6.502-9.5-0.4008 0-4.063 3.3128-8.1384 7.3618-14.871 14.775-35.373 26.785-58.926 34.518-18.297 6.008-39.336 9.7908-40.848 7.3445-0.393-0.6359 0.1163-0.8401 1.3138-0.5269 2.8662 0.7495 20.763-3.3043 34.547-7.8255 17.928-5.8801 45.5-19.742 45.5-22.874 0-0.5646 2.0981-3.6025 4.6625-6.7509 9.2816-11.395 14.265-26.084 12.323-36.322-1.2286-6.4785-3.1106-9.9497-7.4695-13.777-4.3095-3.7838-3.5501-4.1743 1.1485-0.5905 6.7832 5.1738 9.801 16.366 7.4172 27.508-1.6254 7.5974-7.2386 18.498-12.841 24.938-4.513 5.1873-4.5726 5.3305-1.2406 2.9838 6.2314-4.3888 18.572-16.792 23.029-23.145 2.3886-3.4053 3.7627-5.8327 3.0534-5.3943-0.7912 0.489-0.6506-0.1783 0.3641-1.7268 3.1117-4.7491 5.5536-13.186 5.704-19.708 0.1429-6.2 0.1816-6.2971 0.8017-2.0141l0.6515 4.5 0.8367-3.8942c1.9844-9.237-1.4695-27.716-6.2941-33.674l-1.741-2.15-4.2025 5.5661c-2.3114 3.0614-4.2025 6.0355-4.2025 6.6091s-0.5052 1.0429-1.1226 1.0429-3.9011 2.5992-7.297 5.7759c-10.118 9.4653-29.414 21.139-43.323 26.21-5.8103 2.1185-6.0767 2.3591-5.1911 4.6885 1.4625 3.8467 1.0953 15.417-0.6789 21.394-4.5753 15.412-13.917 27.582-29.753 38.763-6.2904 4.4412-13.634 8.5968-13.634 7.715 0-0.272 4.1625-3.2762 9.25-6.6761 22.297-14.901 34.717-33.992 34.722-53.37 0-7.555-0.8249-9.7826-3.3593-9.0537-13.698 3.9394-26.408 6.7661-32.112 7.1416-8.4345 0.5553-6.3448-0.7318 4.25-2.6177 3.9875-0.7098 7.25-1.6525 7.25-2.095 0-1.3024-10.689-19.465-18.651-31.69-4.0528-6.2232-6.8533-10.996-6.2233-10.607 1.7255 1.0664 17.812 26.064 22.374 34.769 2.2 4.1974 4.45 7.6191 5 7.6035 0.55-0.016 6.625-1.9352 13.5-4.2661l12.5-4.2379-0.048-4.4939c-0.031-2.8585-1.1648-6.8518-3.116-10.973-3.0471-6.436-4.8448-8.9229-15.268-21.121l-5.4325-6.3578 6.7468 6.5c10.851 10.454 18.258 22.875 18.882 31.662 0.1301 1.8337 0.6285 3.3349 1.1077 3.336 1.7165 0 22.534-11.274 25.582-13.859l3.1109-2.6386-1.5841-6c-3.2062-12.143-10.923-21.332-23.439-27.909-7.24-3.8045-9.1227-5.3329-4.3197-3.5068 15.506 5.8954 28.252 19.843 29.992 32.82 0.6664 4.9684 1.1464 4.7768 11.088-4.4272 7.9667-7.376 8.3052-8.3874 5.7205-17.091-2.3488-7.9091-6.7675-13.532-16.015-20.381-4.6787-3.465-8.5068-6.4745-8.5068-6.6877 0-0.6001 4.0415 1.6657 8.9609 5.0239 10.695 7.3009 15.517 13.729 18.155 24.203l1.206 4.7898 2.3708-2.9172c2.4406-3.003 3.1591-4.1505 7.1287-11.386 2.6363-4.8051 2.3572-9.7331-0.9172-16.195-2.6542-5.2381-13.783-13.768-20.668-15.841l-2.736-0.8238 2.5588-0.086c3.1406-0.1055 13.116 5.7527 18.2 10.688 2.0675 2.0071 4.6117 5.9164 5.6538 8.6874l1.8948 5.0381 0.7647-2.99c0.9106-3.56-0.7698-15.912-3.1637-23.256-1.5659-4.804-7.5111-13.254-9.325-13.254-0.4182 0-3.8706 2.9629-7.6721 6.5843-20.723 19.741-55.156 35.025-91.104 40.437-4.2943 0.6465-8.4828 1.6691-9.3078 2.2724-1.3333 0.9751-1.3333 0.9153 0-0.5376 0.8881-0.9677 7.0075-2.8429 15-4.5964 25.726-5.6443 49.128-14.88 66.5-26.245 4.4-2.8786 12.525-9.7744 18.055-15.324 8.8879-8.9189 10.658-11.309 15.25-20.59 7.6912-15.546 8.7331-27.832 3.6568-43.115-1.4016-4.2196-6.2453-9.9713-8.2884-9.842-0.3703 0.023-2.3431 2.2093-4.3839 4.8574l-3.7106 4.8149 2.5181 1.1473c1.5717 0.7161 3.53 3.3065 5.2106 6.8926 2.3403 4.9936 2.6777 6.9226 2.5792 14.745-0.1385 11.002-3.4777 22.236-9.2762 31.208-5.6761 8.7821-6.6351 8.5543-1.5504-0.3682 2.3999-4.2114 5.3178-10.398 6.4842-13.748 2.5564-7.3426 3.6322-21.451 2.0733-27.19-1.3762-5.0667-5.126-10.779-7.3581-11.209-0.9333-0.1797-6.0489 3.2278-11.596 7.724-16.012 12.979-35.907 22.536-60.529 29.076-8.9851 2.3867-27.662 5.3594-21.439 3.4125 1.4515-0.4542 1.203-1.1757-1.7271-5.0144-1.8825-2.4661-5.0368-7.3703-7.0098-10.898-3.7732-6.7473-12.683-26.232-13.944-30.492-1.5461-5.2261 1.3511-0.1633 7.4392 13 7.5158 16.25 15.74 30.946 17.751 31.717 1.6512 0.6336 9.7101-1.0066 19.045-3.8762 7.437-2.2861 7.6069-2.9441 3.6244-14.031-3.1204-8.6869-7.4822-17.545-14.441-29.326-5.7058-9.6602-6.1266-12.495-0.6242-4.205 9.2426 13.925 18.691 35.321 18.691 42.327 0 3.1015 1.1585 3.0352 10.665-0.6095 13.637-5.2285 20.796-9.2262 21.164-11.818 0.4221-2.9738-5.0437-14.461-12.534-26.343-9.988-15.844-9.9964-15.861-5.6484-11.228 5.2292 5.5717 16.131 24.121 18.755 31.912l2.1374 6.3463 7.6087-5.1822c4.1848-2.8502 8.8318-6.1808 10.327-7.4013l2.7178-2.2191-1.1772-6.9796c-1.3969-8.2814-5.9742-18.192-12.419-26.888-4.9905-6.734-3.0688-7.1453 2.1528-0.4608 6.9585 8.908 12.252 21.63 12.252 29.444v4.2397l4.5744-4.4582c2.5159-2.452 6.171-6.6186 8.1225-9.2592 2.9581-4.0023 3.4546-5.3782 2.985-8.2716-0.862-5.3119-7.1601-17.627-12.733-24.899-5.5134-7.1933-5.379-8.6295 0.2599-2.7788 4.3142 4.4763 8.5418 11.55 11.804 19.75 1.3129 3.3 2.6962 6.3765 3.0739 6.8367 0.3778 0.4602 2.0917-2.1366 3.8087-5.7707 2.5685-5.4362 3.0093-7.357 2.4871-10.837-0.9102-6.065-4.7575-12.681-10.905-18.752l-5.3438-5.2774-8.8165 6.4908c-15.995 11.776-27.954 17.976-46.9 24.314-19.743 6.6056-43.624 10.654-60.879 10.32-4.9709-0.096-7.013-0.3322-4.538-0.5247 8.5551-0.6653 27.534-3.4124 36.744-5.3185 13.471-2.788 21.686-8.2992 32.47-21.783 7.2167-9.0238 14.209-21.07 17.888-30.816 1.7505-4.638 3.3397-8.2756 3.5317-8.0837 0.1919 0.192-0.3452 3.0156-1.1936 6.2747-4.5109 17.329-21.323 40.729-34.826 48.474-2.8122 1.6129-4.7888 2.9369-4.3925 2.942 2.5281 0.033 26.843-8.823 35.212-12.825 10.796-5.1625 13.852-7.8974 20.75-18.57 4.6869-7.2514 7.5346-16.02 9.2873-28.596l1.324-9.5 0.086 6.5c0.1622 12.303-3.8189 25.238-10.964 35.623-3.5406 5.1461-3.033 5.0277 5.0844-1.1857 9.9145-7.5889 20.113-18.45 22.886-24.373 2.3102-4.9346 2.6056-6.8091 2.6097-16.564 0-6.05-0.3206-12.575-0.7181-14.5l-0.7229-3.5 1.6453 3c1.2337 2.2495 1.6647 5.8008 1.7228 14.195 0.087 12.491 0.5598 12.469 4.6584-0.218 1.626-5.0328 2.2465-9.3373 2.2308-15.475-0.1091-42.795-39.353-72.044-111.56-83.149-11.704-1.8-18.798-2.2053-39.747-2.2711-26.817-0.084-35.677 0.7034-55.5 4.9339-27.523 5.8738-52.778 18.103-68.846 33.337-7.9715 7.5577-16.847 20.775-20.054 29.864-2.0033 5.6779-3.7081 18.492-2.9587 22.239 1.0506 5.2531 5.8621 3.8029 22.812-6.8754 5.3856-3.393 10.013-5.9481 10.283-5.678 0.6316 0.6316-12.26 8.9761-20.513 13.278-3.5028 1.8257-7.6859 3.3195-9.296 3.3195-1.7563 0-2.9273 0.5274-2.9273 1.3185 0 3.2496 3.5247 12.801 7.1881 19.478 6.261 11.412 22.042 27.217 27.152 27.194 4.3703-0.02 12.62-5.0032 30.501-18.425 17.503-13.138 22.889-16.483 15.894-9.8696-5.7325 5.4197-30.07 23.44-35.231 26.086-2.7523 1.4113-6.5134 2.8253-8.358 3.1423l-3.3538 0.5765 8.3538 4.9689c13.955 8.3005 30.246 14.762 51.818 20.552 12.128 3.2556 10.69 3.95-1.9643 0.9485-36.81-8.7308-69.17-26.831-82.112-45.929-1.9444-2.8692-3.9429-4.8002-4.69-4.5316-0.7351 0.2643-1.0164 0.01-0.6461-0.5931 0.3607-0.5837-0.4946-3.6249-1.9008-6.7583-7.733-17.231-7.5656-36.409 0.4575-52.418 14.238-28.411 44.748-48.779 87.008-58.087 19.816-4.3646 28.69-5.1575 56.883-5.083 21.975 0.058 28.891 0.4406 40.5 2.2399 61.331 9.5061 99.464 31.921 110.43 64.916 6.0302 18.136 4.5724 34.484-4.5448 50.969-1.8843 3.407-4.536 7.5138-5.8928 9.1262l-2.4668 2.9316 3.4744 3.6839c9.8164 10.408 9.0007 32.741-1.8693 51.182-3.1021 5.2626-3.2832 5.9508-1.7198 6.5373 5.1154 1.9188 10.254 13.209 11.608 25.507 1.1947 10.847-3.8396 26.881-12.345 39.319l-3.0645 4.4814 3.2952 3.0186c6.3878 5.8517 10.715 18.361 10.942 31.629 0.1188 6.9644-0.1934 8.2475-3.677 15.111l-3.8068 7.5001 3.1013 4.8893c10.351 16.318 8.67 42.52-3.8989 60.788-1.6884 2.454-3.0698 4.7714-3.0698 5.1497s1.3472 2.2222 2.9939 4.0976c6.5346 7.4425 9.9573 18.598 9.9887 32.555 0.029 12.742-2.5811 21.603-8.3985 28.517l-2.5115 2.9847 2.4211 2.1052c9.1776 7.9798 10.83 31.505 3.3153 47.192-4.0354 8.4236-19.715 24.224-32.12 32.367-10.322 6.7761-28.083 16.253-38.701 20.652-7.7357 3.2044-26.209 8.7933-31.489 9.5265-1.65 0.2291-7.5 1.1044-13 1.9451-19.103 2.9199-37.704 3.9548-51 2.8374zm-101.5-173.18c0-0.4704 2.745-3.851 6.1-7.5124 6.6448-7.2516 21.598-17.792 31.954-22.523 5.2855-2.4146 6.0858-3.0744 4.4458-3.6652-1.1-0.3963-5.7748-2.4584-10.388-4.5824-4.6137-2.1241-9.3991-3.862-10.634-3.862-1.2352 0-5.8217 1.7898-10.192 3.9773-11.411 5.7113-25.337 19.017-25.266 24.141 0.011 0.7601 2.7498 4.4195 6.0872 8.132 5.6581 6.294 7.8937 7.9634 7.8937 5.8946zm-13.544-19.059c3.8401-7.4259 17.12-18.104 28.027-22.538l5.7155-2.323-7.3492-4.8625c-4.0421-2.6744-7.8295-5.1764-8.4163-5.56-1.8006-1.1769-11.124 3.829-16.567 8.8954-8.9544 8.3342-11.102 16.811-6.3239 24.964 1.3981 2.3859 2.7366 4.3379 2.9743 4.3379s1.1103-1.3113 1.9391-2.9141zm-5.0607-21.497c3.06-5.2214 12.832-13.041 17.608-14.09 1.6483-0.3621 2.997-0.8156 2.997-1.0079s-2.3625-2.6219-5.25-5.399c-6.8038-6.5438-8.7116-6.5512-14.97-0.058-2.6687 2.7687-4.7415 5.5812-4.6063 6.25 0.1352 0.6687-0.383 2.3409-1.1515 3.7159-1.8494 3.3091-1.8747 11.299-0.055 17.5l1.4669 5 0.6017-3.6027c0.331-1.9814 1.8427-5.7201 3.3594-8.3082zm287.61-204c0-7.1575-3.1943-17.139-6.6339-20.729l-2.7646-2.8855-8.2979 8.1437 6.1633 6.1908c3.3898 3.4049 7.034 8.0917 8.0982 10.415s2.2724 4.2358 2.6849 4.25c0.4125 0.014 0.75-2.4091 0.75-5.3851zm-289.01 188.27c3.1583-2.6273 12.044-7.1604 12.717-6.4875 0.2798 0.2797-1.2032 1.2239-3.2956 2.0982-2.0923 0.8742-5.2609 2.7006-7.0414 4.0585-3.9073 2.9803-5.8976 3.257-2.38 0.3308zm79.69 211.6c6.2443-3.212 26.901-18.104 41.569-29.968 3.1622-2.5579 5.4727-3.9293 5.1344-3.0476-0.6996 1.8232-15.61 14-28.664 23.409-9.2077 6.6368-20.795 13.149-23.396 13.149-0.8415 0 1.5688-1.5941 5.3563-3.5424zm-42.181-11.204c4.4918-4.4523 38.785-25.241 50.102-30.373 11.824-5.3613 8.9763-2.8796-5.1025 4.4464-7.7 4.0068-20.075 11.125-27.5 15.819-13.706 8.664-19.307 11.899-17.5 10.108zm84.986-41.504c-6.8905-7.5799-18.107-29.601-21.96-43.112-4.0538-14.217-2.8355-14.307 1.8763-0.1381 6.5462 19.685 16.413 38.195 24.658 46.255 1.8253 1.7846 2.8211 3.2447 2.2128 3.2447-0.6082 0-3.6626-2.8125-6.7874-6.25zm27.868-1.8698c-7.3595-11.376-21.452-42.116-19.982-43.586 0.2076-0.2075 1.0712 1.3564 1.919 3.4754 4.9732 12.429 15.597 33.793 21.87 43.98 3.9359 6.3913 0.7078 3.1106-3.8078-3.8698zm26.975-7.7726c-3.3939-6.9342-9.6183-18.383-13.832-25.442-8.273-13.86-9.6298-18.554-1.885-6.5209 10.105 15.699 23.816 42.939 22.272 44.246-0.2113 0.1788-3.161-5.3484-6.555-12.283zm-106.88 1.5328c-10.292-10.758-17.935-28.218-19.136-43.717-0.6168-7.9598 0.6836-14.326 3.1168-15.26 1.049-0.4025 1.0101 0.143-0.1803 2.5294-2.3754 4.7614-1.2156 18.218 2.5302 29.356 3.8084 11.325 9.0041 20.291 16.052 27.701 3.0079 3.1625 5.0712 5.75 4.5853 5.75s-3.6214-2.8618-6.9677-6.3596zm215.74-13.14c0.02-1.65 0.2445-2.2039 0.4981-1.231 0.2535 0.973 0.2369 2.323-0.037 3-0.2739 0.6771-0.4813-0.119-0.461-1.769zm-4.8592-10.232c-1.7404-1.7975-2.8371-3.2682-2.4371-3.2682 0.9287 0 6.5988 5.8857 6.0285 6.2578-0.2349 0.1532-1.851-1.1921-3.5914-2.9896zm-140.34-35.649c0-0.248 4.9285-4.5589 10.952-9.5799 17.428-14.527 29.862-29.184 34.667-40.867 1.2832-3.1198 2.3437-4.9846 2.3568-4.1441 0.013 0.8405-1.4822 4.6655-3.3227 8.5-5.5209 11.502-18.453 26.265-34.431 39.307-6.0793 4.9621-10.223 7.712-10.223 6.7845zm-41.503-2.1944c6.3628-3.3177 14.669-10.568 32.253-28.152 10.038-10.038 18.25-17.982 18.25-17.653 0 1.5425-10.844 13.874-20.16 22.927-16.227 15.767-27.363 24.459-31.322 24.447-1.61 0-1.4121-0.322 0.9787-1.5686zm116.5-9.0125c18.713-15.682 29-31.748 29-45.293 0-7.3236-3.1086-13.636-8.0093-16.264-2.3587-1.2649-2.8584-1.8553-1.5703-1.8553 1.0391 0 3.5838 1.7813 5.6549 3.9585 10.537 11.077 5.6872 30.801-12.164 49.471-4.7698 4.9887-10.639 10.124-13.042 11.412l-4.3696 2.3419zm-94.817-56.73c-5.3783-8.2388-11.317-21.553-13.679-30.668-2.4127-9.3109-1.6268-11.29 0.982-2.4728 4.1229 13.935 9.7455 26.534 15.743 35.278 1.6299 2.3761 2.7192 4.5645 2.4207 4.863-0.2985 0.2986-2.7588-2.8518-5.4673-7.0008zm31.283-3.4325c-8.5786-18.495-16.589-37.38-16.267-38.347 0.3272-0.9815 14.187 29.263 18.718 40.847 3.0408 7.7733 1.6612 6.3663-2.4512-2.5zm132.74-19.692c-0.6141-1.3478-2.8083-4.3872-4.876-6.7542-3.4496-3.9489-3.4888-4.0564-0.4759-1.3037 3.4679 3.1683 7.683 9.294 6.9201 10.057-0.2484 0.2484-0.9541-0.6511-1.5682-1.9989zm-136.21-40.913c0-0.3655 2.393-3.9228 5.3177-7.905 7.2091-9.8156 15.748-23.808 23.336-38.24 7.4607-14.19 8.3329-14.19 1.5053 0-5.2676 10.947-15.033 27.58-21.746 37.037-4.1545 5.8529-8.4138 10.464-8.4138 9.1086zm38.036 0.026c-0.02-0.4557 2.6002-4.0557 5.8229-8 7.5493-9.2398 18.488-25.947 21.609-33.004 2.1747-4.9174 4.7986-15.747 5.8552-24.167 0.2258-1.799 0.4296-0.9984 0.509 2 0.327 12.344-4.1488 24.302-15.445 41.264-6.8476 10.283-18.263 23.91-18.351 21.907zm-116.04-5.5623c0-1.6238 4.4834-10.321 9.3355-18.109 6.167-9.899 15.36-21.515 20.001-25.271 7.3675-5.964 7.324-5.2882-0.1791 2.7781-8.6447 9.2937-14.288 17.02-22.875 31.317-3.4554 5.7533-6.2826 9.9315-6.2826 9.285zm154.85-10.859c1.0917-1.5125 5.8682-7.7 10.614-13.75 13.382-17.059 19.584-32.01 18.184-43.836-0.3203-2.7041-1.3077-6.0238-2.1944-7.3769-0.8866-1.3532-1.3565-2.7158-1.0442-3.0281 0.3122-0.3123 1.5268 1.6003 2.6989 4.2501 4.1505 9.383 1.4196 23.734-7.2523 38.11-3.3287 5.5184-21.414 28.381-22.45 28.381-0.2972 0 0.3528-1.2375 1.4445-2.75zm-201.31-16.75c1.0327-4.5487 4.9539-12.903 8.4214-17.943 6.2158-9.0344 19.894-20.438 23.195-19.338 0.6497 0.2166-0.8153 1.5639-3.2556 2.9939-9.8512 5.7732-21.528 19.783-25.508 30.604-2.095 5.696-3.8132 7.9148-2.8526 3.6838zm113.88-29.75c-6.0229-7.1072-18.417-36.934-19.842-47.75-0.3779-2.8686 1.0378 0.3647 3.9048 8.9187 4.4556 13.293 13.477 33.412 17.541 39.12 2.8112 3.9479 1.8378 3.7727-1.604-0.2888zm21.498-69.777c11.94-8.0215 27.898-23.35 35.532-34.131 7.2989-10.307 7.9335-11.034 6.6387-7.6041-5.1857 13.737-36.704 44.429-48.611 47.336-1.9829 0.4843 0.1739-1.3918 6.4396-5.6011zm-48.315-0.665c6.4492-4.8659 19.828-16.194 30.394-25.735 10.997-9.9304 14.318-11.667 6-3.1369-12.095 12.402-37.012 32.564-40.245 32.564-0.5736 0 1.1593-1.6616 3.8509-3.6924zm-46.606-8.5974c0.275-0.296 3.3135-2.0394 6.7521-3.8742 7.4366-3.968 20.419-13.055 32.498-22.747 4.8125-3.8616 8.75-6.6776 8.75-6.2578 0 2.654-26.432 23.069-36.939 28.53-6.1274 3.1848-12.196 5.571-11.061 4.3491zm-44.852-43.46c12.782-6.4156 25.956-15.47 31.914-21.933 2.1659-2.3498 3.9381-3.8224 3.9381-3.2724 0 1.9445-7.9801 9.6195-16.024 15.411-9.1747 6.6058-25.944 15.544-29.162 15.544-1.1672 0 3.0329-2.5875 9.3336-5.75z" inkscape:label="fg" sodipodi:nodetypes="sssscssscsssssssscssssssssscsscsssssssssssssssssssssssssssssssssssscsssssscsssscsssssssscsssscssssssssssssssscsssssssscssscssssssssssssssssscssssscssssscssscsssscsssssssssscssssssssssscssscsssscsscsssssssssssscssssscssssssssssssssssssssscsssssssssssssssssssssssssssssscssssssscssssscssssssssssssssssssssssssssssssscsscsssssssssscssssssssscssscsscscsssssssssscsssscssscsssssssssssssscsssssssssssssssssssssssssscsscsssscsssssssssscsssssssssssssscsssscscssssssssssssssssssssscssssscsssssssscssssscssscsssssscsssssssssssssssssssscsssssssssssssscssssscccsssssssssssssssssssssssssssssssssssssssssssssssssssssssssssssssscsssssssscsssssssssssssssssssssssssssssssssssssssssssssssssssssssssssssssssssssssssssss" id="path310"/></g></g></svg>