<svg width="681.844" height="808.133" inkscape:version="1.1.1 (3bf5ae0d25, 2021-09-20)" sodipodi:docname="isometric-map-icons-dungeon-1.svg" version="1.1" viewBox="51.092 1448.634 681.844 808.133" xml:space="preserve" id="svg536" xmlns:inkscape="http://www.inkscape.org/namespaces/inkscape" xmlns:sodipodi="http://sodipodi.sourceforge.net/DTD/sodipodi-0.dtd" xmlns="http://www.w3.org/2000/svg" xmlns:svg="http://www.w3.org/2000/svg" xmlns:rdf="http://www.w3.org/1999/02/22-rdf-syntax-ns#" xmlns:cc="http://creativecommons.org/ns#"><defs id="defs538"/><sodipodi:namedview bordercolor="#ffffff" borderopacity="1" inkscape:current-layer="g8" inkscape:cx="3199.3086" inkscape:cy="2041.5679" inkscape:deskcolor="#cccccc" inkscape:pagecheckerboard="1" inkscape:pageopacity="0" inkscape:showpageshadow="0" inkscape:window-height="1080" inkscape:window-maximized="1" inkscape:window-width="1920" inkscape:window-x="0" inkscape:window-y="0" inkscape:zoom="0.13690458" pagecolor="#999999" showgrid="false" id="namedview2" inkscape:pageshadow="2"/><metadata id="metadata540"><rdf:rdf><cc:license rdf:about="http://creativecommons.org/licenses/by-sa/4.0/"><cc:permits rdf:resource="http://creativecommons.org/ns#Reproduction"/><cc:permits rdf:resource="http://creativecommons.org/ns#Distribution"/><cc:requires rdf:resource="http://creativecommons.org/ns#Notice"/><cc:requires rdf:resource="http://creativecommons.org/ns#Attribution"/><cc:permits rdf:resource="http://creativecommons.org/ns#DerivativeWorks"/><cc:requires rdf:resource="http://creativecommons.org/ns#ShareAlike"/></cc:license><cc:work rdf:about=""><cc:license rdf:resource="http://creativecommons.org/licenses/by-sa/4.0/"/></cc:work></rdf:rdf></metadata><g transform="translate(149.49 965.28)" inkscape:groupmode="layer" inkscape:label="dungeon_door" id="g212"><g transform="translate(0 600)" inkscape:label="dungeon_entrance_5" id="g210"><path d="m-74.306 410.48s-2.328-15.435-1.8093-33.535c0.51872-18.1-0.6308-25.506-0.74819-35.868-0.11739-10.362 0.4296-20.715 0.37975-29.314-0.04985-8.5993 0.12904-25.605 0.13197-38.002 0.0029-12.397-0.18711-41.068-0.43994-49.238-0.25283-8.1701-0.08446-55.95-0.2079-62.25-0.12344-6.2997 0.2858-38.05 0.25156-44.488-0.03424-6.4381-0.0151-35.408-0.0151-35.408l8.5243-8.5243s-0.56531-9.8033-0.92161-15.577c-0.3563-5.774-0.64142-31.923-0.64142-35.311s-0.68356-26.419-0.77195-34.162c-0.08839-7.7429 0.2534-16.012 1.1271-21.473 0.87374-5.4615 1.746-16.956 2.0997-20.793 0.35365-3.8373 0.26833-6.6525 0.26833-6.6525s8.7567-4.3087 13.859-8.269c5.1024-3.9603 44.841-26.286 44.841-26.286s10.502 4.5793 17.132 9.0326c6.6298 4.4533 20.359 14.331 27.672 18.781 7.3126 4.4499 31.797 18.719 38.619 22.809 6.8224 4.0905 27.415 13.699 34.101 17.332 6.6859 3.6326 17.971 10.955 23.661 15.304 5.6905 4.349 28.442 17.265 36.775 22.467 8.3334 5.202 27.43 15.546 32.779 19.43 5.3483 3.884 23.938 15.04 31.256 19.2 7.3178 4.1595 19.736 12.657 27.612 17.922 7.8762 5.265 17.619 12.47 21.658 14.489 4.0394 2.0185 18.397 6.6342 31.411 14.333s20.482 13.681 24.911 17.349c4.4286 3.6679 16.912 9.7419 25.392 14.872s15.025 10.205 19.845 12.791c4.8199 2.5859 17.731 7.4783 27.984 11.795 10.252 4.317 28.401 13.969 33.238 17.729 4.8374 3.7596 41.856 24.723 50.25 29.92 8.3938 5.1967 25.003 15.66 30.324 19.579 5.3203 3.9189 5.5563 4.9127 9.0744 7.1173 3.5182 2.2046 27.701 12.761 27.701 12.761s-2.9719 12.969-2.8996 23.054c0.0723 10.085 1.0304 19.322 1.2616 30.541 0.23115 11.219-3.5325 28.89-3.5325 32.822 0 3.9326 1.3467 18.373 2.4575 25.491 1.1108 7.1183-0.4014 16.284-0.52346 24.835-0.12207 8.5509 0.27393 29.267 0.39893 34.735 0.125 5.4677 0.096 59.26 0 67.293-0.096 8.0326 0.50331 81.558 0.50331 85.833 0 4.2754-0.58877 35.311-0.58877 43.496 0 8.1855-0.47394 29.462-0.85988 30.267-0.38593 0.8055-48.098 27.769-48.098 27.769l-58.081-29.321-59.823 32.905-124.87-72.091s-1.9103-25.753-2.4983-35.32c-0.58809-9.5662-0.92807-39.053-1.2334-48.01-0.30531-8.9569 0.72349-47.876 0.36584-52.632-0.35765-4.7565-1.5483-16.985-1.5434-29.244 5e-3 -12.258 0.47077-33.358 0.74137-42.917 0.2706-9.5598 1.9673-58.73 1.9673-58.73s-8.5108-16.194-12.331-22.634-22.682-37.521-24.521-40.721c-1.8393-3.1997-15.154-24.111-15.154-24.111l-50.428-29.114v110.56s0.35577 27.55 0.48077 32.898-2.0696 49.911-2.0696 49.911l-117.7 67.952s-5.3885-2.6494-10.443-3.9518-16.495-8.3388-29.998-16.891c-13.503-8.5519-28.487-14.455-43.738-24.666-15.252-10.21-34.574-19.873-34.574-19.873z" fill="#fff" stop-color="#000000" style="paint-order:stroke fill markers" inkscape:label="bg" id="path206"/><path d="m386.21 669.39c-2.876-1.8879-11.426-6.8678-19-11.067-7.574-4.1987-18.271-10.632-23.771-14.296-16.383-10.914-30.138-19.241-45.5-27.545-7.975-4.3108-15.8-8.7355-17.389-9.8325-1.589-1.0971-5.0395-3.0663-7.6678-4.376-2.6282-1.3097-5.2706-2.9741-5.872-3.6987-0.6409-0.7722-1.4964-10.168-2.0672-22.702-0.5356-11.761-1.2355-23.63-1.5553-26.376-0.3199-2.7455-0.9638-30.646-1.431-62-0.8795-59.028 0.154-133.72 2.0443-147.74l1.0427-7.7331-6.2095-11.267c-7.5399-13.681-20.77-35.572-27.659-45.767-2.7876-4.125-7.7662-12.368-11.064-18.318l-5.9951-10.818-48.677-28.471-0.2978 54.553c-0.1638 30.004 0.1347 61.753 0.6635 70.553 0.688 11.451 0.5946 23.25-0.3282 41.5-0.7093 14.025-1.3454 25.612-1.4135 25.75-0.068 0.1375-0.7831 0.25-1.5886 0.25-1.9481 0-29.42 15.762-44.613 25.595-4.1675 2.6976-13.07 8.0547-19.782 11.905-6.7128 3.85-19.053 11.058-27.423 16.019s-17.826 10.488-21.014 12.285l-5.7967 3.2664-3.0258-2.1546c-1.6641-1.185-5.0635-2.7678-7.554-3.5173-4.5917-1.3819-16.589-7.8869-30.449-16.509-4.1922-2.6081-12.292-7.0834-18-9.9452-5.7079-2.8618-13.753-7.3149-17.878-9.8956-4.125-2.5808-11.55-7.0952-16.5-10.032s-9.8253-6.0458-10.834-6.9087-5.0587-3.1524-9-5.0879l-7.166-3.519-0.8017-8.5c-0.8149-8.6401-1.3485-87.886-1.5987-237.45l-0.1387-82.946 8.7988-9.1084-1.0305-37.5c-1.3094-47.648-1.1535-61.84 0.8293-75.5 0.9119-6.2819 1.3299-13.157 0.9747-16.029l-0.6219-5.0292 4.2943-2.1132c2.3619-1.1623 7.8944-4.7977 12.294-8.0787s11.15-7.6728 15-9.7595c3.85-2.0868 11.466-6.1882 16.924-9.1142 5.4581-2.9259 10.183-5.7029 10.5-6.1709 1.262-1.8632 4.0541-2.0778 5.299-0.4073 0.7026 0.9428 3.7335 2.8364 6.7353 4.2082 6.7776 3.097 15.76 8.8396 22.812 14.584 2.9566 2.4084 9.9555 6.9124 15.553 10.009 5.5976 3.0965 12.484 7.1206 15.302 8.9424 8.176 5.2849 28.54 16.489 46.017 25.318 8.8778 4.4849 19.903 10.88 24.5 14.212 8.4821 6.1469 16.94 11.385 35.858 22.209 5.775 3.3039 15.452 9.254 21.504 13.222 6.0521 3.9683 13.252 8.3567 16 9.752 10.15 5.1541 43.897 25.895 47.496 29.192 1.375 1.2592 4.75 3.5702 7.5 5.1355 5.6061 3.1909 18.918 11.927 25 16.406 2.2 1.6202 6.25 3.6809 9 4.5794 10.612 3.467 30.236 13.988 42 22.518 11.381 8.2517 22.212 15.287 34.5 22.41 8.8396 5.124 15.393 9.0784 19.587 11.819 2.1522 1.4062 8.638 4.4242 14.413 6.7066s12.075 4.9577 14 5.9451 9.2608 4.5934 16.302 8.0134c7.041 3.4201 14.916 7.8376 17.5 9.8168 2.584 1.9791 10.098 6.5704 16.698 10.203 26.934 14.823 62.27 36.89 69.522 43.416 1.937 1.7431 6.212 4.2558 9.5 5.5839 3.288 1.328 9.7378 4.4088 14.333 6.8462l8.3546 4.4315-0.8546 7.6125c-0.8124 7.237-0.8956 19.765-0.2861 43.113 0.1668 6.3908-0.4589 15.672-1.5988 23.716-1.8191 12.836-1.8209 13.688-0.063 29.62 1.0514 9.5271 1.4724 17.402 1.0042 18.784-0.4433 1.3089-0.6119 46.255-0.3747 99.88s0.3531 102 0.2577 107.5c-0.096 5.5-0.3292 23.437-0.5194 39.86l-0.3459 29.86-2.9644 1.5193c-1.6304 0.8355-4.7644 2.9585-6.9644 4.7175-3.8348 3.0663-9.4243 6.3931-30.686 18.265-9.2639 5.1724-9.791 5.3399-12.082 3.839-1.3174-0.8631-6.5074-3.3269-11.533-5.4751-5.026-2.1481-10.389-4.7945-11.918-5.8808-1.529-1.0863-9.3905-5.3606-17.47-9.4985l-14.69-7.5233-7.8101 4.7362c-10.504 6.3697-38.601 22.259-44.81 25.341-7.8474 3.8949-8.5006 3.9014-14.229 0.1412zm32.229-14.662c12.989-7.335 29.707-17.111 31.332-18.322 0.1828-0.1363-0.3797-4.7269-1.25-10.201-0.8704-5.4745-1.5825-14.512-1.5825-20.084 0-5.5719-0.1818-10.131-0.4039-10.131-0.4536 0-7.9411 4.238-20.596 11.658-12.899 7.5625-28.288 16.159-30.25 16.898-1.5917 0.5992-1.75 2.5961-1.75 22.072v21.413l4.25-2.1336c2.3375-1.1735 11.45-6.1994 20.25-11.169zm-26.5-6.804c0-10.486-0.432-19.873-0.9601-20.86-0.528-0.9867-3.3405-2.8148-6.25-4.0625-11.037-4.733-47.796-25.882-88.29-50.797-14.532-8.9412-27.63-16.419-28.04-16.008-0.6125 0.6124 1.3913 38.977 2.0713 39.657 0.3394 0.3395 3.4882 2.1964 6.9973 4.1265 25.951 14.274 47.81 27.292 66.472 39.588 6.875 4.5298 17.675 11.063 24 14.519s13.75 7.7495 16.5 9.542c2.75 1.7924 5.5625 3.2818 6.25 3.3097 0.9581 0.039 1.25-4.4022 1.25-19.015zm130.05 10.482c5.1967-3.071 13.088-7.5679 17.537-9.9931 4.4488-2.4252 8.9192-5.3271 9.9342-6.4487 1.015-1.1215 3.3061-2.9419 5.0914-4.0453l3.246-2.0061-0.5662-16.712c-0.3113-9.1914-0.6678-16.837-0.7922-16.99-0.1243-0.1532-4.9274 2.5722-10.674 6.0566-5.7461 3.4843-13.571 7.6468-17.388 9.2498-3.8173 1.6031-9.4155 4.3875-12.44 6.1876l-5.5 3.2728v18.506c0 12.273 0.3541 18.506 1.0514 18.506 0.5782 1e-4 5.3032-2.5124 10.5-5.5834zm-13.658 2.0018c0.7973-2.0778 0.7779-17.489-0.032-25.236l-0.6388-6.1112-7.5435-3.1404c-7.7648-3.2325-11.476-5.4598-16.679-10.01-2.7783-2.4299-10.965-7.2245-27.75-16.252l-6.75-3.6304v8.6634c0 4.7648 0.5204 12.721 1.1564 17.68 1.4391 11.222 2.2692 12.091 20.203 21.149 7.0914 3.582 14.209 7.4496 15.817 8.5947 2.5043 1.7832 19.09 9.5234 20.967 9.7849 0.3537 0.049 0.9162-0.6222 1.25-1.4922zm-1.6034-58.168c0.1198-19.279-0.2716-28.066-1.7704-39.75-2.4083-18.775-3.7612-73.316-2.0837-84 3.2642-20.788 3.9563-32.985 3.0367-53.513-0.5048-11.268-0.93-21.193-0.945-22.055-0.016-0.9145-2.9718-3.106-7.0932-5.2589-3.8863-2.03-10.749-6.1003-15.25-9.045s-9.309-5.9257-10.684-6.6245-5.425-3.4055-9-6.0148c-3.575-2.6094-8.4825-5.7442-10.906-6.9663l-4.4056-2.222 0.755 14.85c0.4153 8.1673 1.0478 18.614 1.4057 23.215l0.6506 8.3653 9.5 4.7854c5.225 2.6319 12.988 6.3829 17.25 8.3354s7.75 3.775 7.75 4.05c0 0.6006-11.766-4.6613-25.473-11.392-5.485-2.6934-10.081-4.7888-10.213-4.6565s-0.2913 9.8457-0.3532 21.585l-0.1127 21.345 4.826 2.8335c2.6543 1.5584 10.565 5.3929 17.58 8.5211 7.0148 3.1281 12.59 5.8515 12.39 6.052-0.5032 0.5033-24.284-9.9309-30.341-13.313l-4.9378-2.7569-3.4325 2.5279c-3.1119 2.2919-14.072 8.7293-40.932 24.042l-9.5 5.4159-0.5418 40.505 13.771-7.2358c7.574-3.9797 15.51-8.3177 17.635-9.64 2.1253-1.3224 5.6677-3.0406 7.8721-3.8183 2.2043-0.7777 6.5474-2.5538 9.6514-3.9467l5.6436-2.5327-0.1764-21.219c-0.1504-18.088-0.054-19.669 0.6539-10.719 0.4567 5.775 0.979 15.721 1.1607 22.103l0.3304 11.603 5 2.8078c2.75 1.5443 10.062 5.4547 16.25 8.6899s11.25 6.0734 11.25 6.3069c0 0.7817-16.46-7.3226-27.309-13.446-3.1952-1.8034-6.037-3.0514-6.3152-2.7732-0.2781 0.2782-0.7587 10.339-1.0678 22.357l-0.562 21.852 6.3772 3.45c8.326 4.5043 21.661 13.05 20.364 13.05-0.5574 0-3.2574-1.4907-6-3.3128-5.3919-3.5822-19.984-11.687-21.041-11.687-0.9758 0 0.6531 38.228 1.7156 40.26 0.5062 0.9683 4.8396 3.7591 9.6297 6.2019 11.549 5.8896 21.751 12.067 28.677 17.366 3.1121 2.3805 8.6674 5.5946 12.345 7.1423 3.6777 1.5478 6.7173 2.8625 6.7546 2.9217 0.037 0.059 0.1371-11.03 0.2217-24.642zm6.7104 21.693c1.65-1.1243 8.85-4.9062 16-8.4041 7.15-3.498 16.222-8.4403 20.159-10.983l7.1592-4.6229 0.8098-9.7164c0.9849-11.816 1.119-32.799 0.2156-33.704-0.6739-0.6752-9.8613 4.2968-25.812 13.969-8.8232 5.3501-18.08 10.353-16.988 9.1813 0.531-0.5697 21.357-13.116 35.562-21.425l7.1067-4.1565 0.1819-26.136 0.182-26.136-5.7886 3.2572c-3.1837 1.7914-7.8136 4.6931-10.289 6.4481-2.475 1.7549-7.875 5.1169-12 7.471s-11.495 6.808-16.377 9.8974l-8.8769 5.6172 0.6679 11.5c0.9414 16.209 3.8858 37.336 5.0623 36.324 0.5267-0.4531 0.4712-0.1488-0.1232 0.6762-2.2197 3.0807-2.641 43.017-0.4536 42.993 0.3302 0 1.9503-0.9265 3.6003-2.0508zm-122.5-22.845v-22.902l-3.2144-1.1206c-1.7679-0.6163-11.105-5.5642-20.75-10.995-14.25-8.0247-41.149-22.076-42.27-22.081-0.146-7e-4 -0.04 9.7543 0.2346 21.678l0.5 21.679 9 5.4654c12.689 7.7056 54.804 31.033 56.25 31.158 0.1375 0.012 0.25-10.284 0.25-22.881zm11.899 17.229c4.7308-2.5702 15.126-8.4891 23.101-13.153 7.975-4.6642 15.808-9.0303 17.406-9.7025l2.9065-1.2223-0.229-19.864c-0.1259-10.925-0.3434-19.978-0.4833-20.118-0.7998-0.7997-14.028 5.6026-26.645 12.897-7.9996 4.6243-17.104 9.5166-20.233 10.872l-5.6883 2.4642-0.017 21.25c-0.01 11.688 0.2748 21.25 0.6315 21.25s4.5192-2.1029 9.25-4.673zm-79.807-54.336c-0.5416-13.752-1.2301-21.537-1.9252-21.768-0.5952-0.1984-4.8541-2.7289-9.4643-5.6232-4.6102-2.8944-12.167-7.3256-16.792-9.8472-4.6256-2.5215-12.662-7.0973-17.859-10.168-5.1968-3.071-9.8244-5.5836-10.284-5.5836-0.8055 0-0.2614 22.943 0.8475 35.734l0.5404 6.2343 7.6721 4.3752c4.2197 2.4064 16.641 9.8319 27.603 16.501 10.962 6.6693 20.06 11.997 20.218 11.84 0.1575-0.1576-0.093-9.9199-0.5567-21.694zm76.537 11.333c3.2289-1.4718 12.621-6.6068 20.871-11.411 8.25-4.8043 16.905-9.2404 19.233-9.858 2.3281-0.6176 4.6906-1.9781 5.25-3.0232 0.5593-1.0452 1.0309-7.8924 1.0479-15.216 0.017-7.3236 0.4644-16.656 0.9942-20.738 0.5299-4.0824 0.8373-7.5485 0.6833-7.7026-0.5576-0.5575-17.632 6.6317-22.361 9.4153-2.666 1.5691-10.743 5.899-17.948 9.622l-13.101 6.7691-0.6488 12.066c-0.7103 13.211-0.8712 32.752-0.2696 32.752 0.2085 0 3.021-1.2042 6.25-2.676zm-8.6247-10.074c0-5.9125 0.2949-15.788 0.6498-21.946l0.6451-11.196-5.5244-2.4432c-5.6735-2.509-34.03-18.176-48.275-26.672-4.4-2.6243-12.606-7.0717-18.235-9.8832-5.6292-2.8116-13.054-6.8283-16.5-8.9261-3.4458-2.0979-10.765-6.232-16.265-9.187-5.5-2.9551-12.341-6.863-15.202-8.6843-2.861-1.8212-5.4485-3.3114-5.75-3.3114-0.3014 0-0.548 10.065-0.548 22.367v22.367l8.25 4.7498c4.5375 2.6124 13.65 7.7779 20.25 11.479 6.6 3.701 14.475 8.3145 17.5 10.252s11.575 6.5655 19 10.284c13.326 6.6733 28.988 15.045 48.5 25.925 5.4999 3.0669 10.337 5.5761 10.75 5.5761 0.4125 0 0.7521-4.8375 0.7546-10.75zm124-38.455c3.025-2.1616 10.109-6.7123 15.743-10.113 5.6337-3.4003 14.071-8.5751 18.75-11.5l8.507-5.3171v-22.933c0-12.613-0.2473-22.933-0.5497-22.933-1.1615 0-7.2347 3.4946-13.95 8.0273-6.2127 4.1932-13.69 8.5595-28.5 16.643-8.866 4.8389-0.2702-0.9057 11-7.3513 6.325-3.6174 14.2-8.4814 17.5-10.809 3.3-2.3277 7.9125-5.2037 10.25-6.3912l4.25-2.159v-40.189l-2.25 1.4362c-1.2375 0.7899-4.95 3.0451-8.25 5.0116s-11.175 6.6991-17.5 10.517c-13.18 7.9555-16 9.5198-16 8.875 0-0.2533 5.7375-3.9339 12.75-8.179 7.0125-4.2452 16.648-10.235 21.412-13.311l8.6616-5.5924 0.3686-19.514c0.2028-10.732 0.3173-19.626 0.2546-19.764-0.3267-0.7173-21.214 10.738-29.446 16.149-13.754 9.0404-17.87 11.601-18.646 11.601-1.8853 0 26.65-18.524 36.898-23.954l11.748-6.2235 0.01-9.6613c0-7.8134-1.791-29.858-2.5188-30.924-0.2064-0.3023-12.857 6.6615-25.987 14.305-4.95 2.8817-12.262 6.8692-16.25 8.8612l-7.25 3.6218v21.988c0 14.808 0.3458 21.987 1.059 21.987 0.5825 0 0.7989 0.421 0.4809 0.9355s-0.1533 11.04 0.3659 23.389c0.9423 22.413 0.2145 36.164-2.8675 54.175-1.1547 6.7481-1.3724 32.486-0.3916 46.303 0.742 10.454 0.1504 10.283 10.353 2.9919zm-123.26-18.147-0.2421-21.352-8.5-4.4743c-19.258-10.137-55.213-28.822-55.462-28.822-0.1472 0-0.5698 6.1875-0.9391 13.75s-0.9297 16.263-1.2455 19.335l-0.574 5.5849 27.36 15.54c31.18 17.71 38.055 21.521 39.103 21.678 0.4082 0.061 0.6332-9.497 0.5-21.24zm-67.497-33.898c0.7434-23.054 0.8777-22.495-6.4167-26.716-3.2939-1.9062-12.924-7.9812-21.4-13.5-21.152-13.772-30.159-18.678-30.874-16.814-0.7457 1.9432-0.6925 17.218 0.1083 31.117l0.6532 11.337 3.5923 2.2635c8.5386 5.3804 51.924 29.471 53.187 29.533 0.327 0.016 0.8448-7.7333 1.1507-17.221zm81.22 7.0921c4.969-2.8369 16.279-9.3626 25.134-14.502l16.1-9.3437 0.3815-20.248c0.2098-11.137 0.3127-25.198 0.2288-31.248-0.3571-25.721-0.7764-40.5-1.1491-40.5-0.2192 0-2.9324 1.5071-6.0294 3.3492-5.5089 3.2766-33.316 18.992-42.024 23.75l-4.3929 2.4004 0.5851 21.359c0.3218 11.747 0.8613 21.635 1.1989 21.973 0.7128 0.7127 11.646-5.0768 29.116-15.419 10.704-6.3364 20.55-11.413 22.135-11.413 1.4921 0-2.444 3.1062-6.1343 4.8408-2.3557 1.1073-9.4999 5.1639-15.876 9.0148-6.3762 3.8508-15.608 9.0875-20.516 11.637l-8.9227 4.6354-0.6503 12.093c-1.0585 19.686-0.8328 32.779 0.5652 32.779 0.6684 0 5.2809-2.3211 10.25-5.1579zm-13.108-18.386 0.6351-22.044-5.7462-2.8064c-3.1604-1.5435-11.596-6.0544-18.746-10.024s-18.741-9.9761-25.758-13.347-22.092-11.703-33.5-18.516c-41.392-24.717-41.565-24.813-42.412-23.478-0.4395 0.6923-0.806 10.08-0.8144 20.861l-0.015 19.602 8.047 4.3979c4.4258 2.4188 12.977 7.6685 19.003 11.666 20.202 13.402 32.132 20.372 56.865 33.223 13.522 7.0258 28.41 15.015 33.085 17.754s8.55 4.9288 8.6111 4.8672c0.061-0.062 0.3969-10.032 0.7462-22.156zm-346.71 1.39c-0.3573-5.0345-0.6497-13.761-0.6497-19.393v-10.239l-3.3078-1.3569c-5.7481-2.3581-38.757-19.88-49.692-26.379-5.775-3.4317-14.325-8.1434-19-10.47-4.675-2.3271-12.1-6.3611-16.5-8.9645-9.182-5.4329-29.098-16.044-30.113-16.044-1.0772 0 0.3054 32.182 1.5168 35.304 0.7497 1.9323 2.5665 3.447 5.8421 4.8707 2.6148 1.1364 6.133 3.096 7.8184 4.3548 5.1499 3.8463 37.416 22.943 46.331 27.422 4.6174 2.3194 11.817 6.3509 16 8.959 13.03 8.1251 27.431 15.851 31.636 16.973 2.217 0.5916 4.917 1.7455 6 2.5642 4.2726 3.2302 4.8164 2.2266 4.1188-7.6013zm19.242-2.7029c8.0343-4.8711 16.183-9.6525 18.108-10.626 1.925-0.9729 8.5939-4.7499 14.82-8.3934l11.32-6.6246-0.3198-19.668c-0.1759-10.817-0.6545-20.002-1.0637-20.41-0.4091-0.4084-1.5341-0.045-2.5 0.807-0.9658 0.8522-4.9061 3.1285-8.7561 5.0584-3.85 1.9298-11.743 6.835-17.539 10.9-9.0745 6.3642-18.26 12.244-29.204 18.696-2.6878 1.5843-2.7438 1.8126-2.75 11.214-0.01 13.905 1.1375 27.904 2.2855 27.904 0.5458 0 7.566-3.9854 15.6-8.8565zm327.41-42.394c-0.7444-26.732-0.3466-25.439-8.8266-28.706-3.8387-1.4791-13.504-6.3066-21.48-10.728s-19.837-10.782-26.36-14.134l-11.86-6.0953 0.7783 5.7065c0.4281 3.1386 0.815 12.682 0.8598 21.207 0.045 8.525 0.4555 16.079 0.9127 16.786 0.4571 0.7072 9.6821 5.7304 20.5 11.163 10.818 5.4323 25.294 13.061 32.169 16.952s12.802 7.0806 13.171 7.0872c0.3691 0.01 0.4299-8.6505 0.135-19.238zm-258.27 1.3044c9.0945-5.4286 18.77-10.93 21.5-12.225l4.9646-2.3546 0.7552-16.488c0.4154-9.0682 0.6404-18.855 0.5-21.749l-0.2552-5.2618-8.3046 5.5658c-4.5675 3.0612-14.542 8.7234-22.165 12.583-7.6235 3.8593-15.394 8.4475-17.268 10.196l-3.4076 3.179 0.4141 20.291 0.4141 20.29 3.1589-2.0783c1.7375-1.143 10.6-6.5198 19.694-11.948zm-89.53-14.181-0.2782-26.127-6.7611-2.3643c-3.7186-1.3003-14.232-6.3592-23.364-11.242-24.834-13.279-34.37-18.207-34.656-17.908-0.1415 0.1478-0.4018 10.978-0.5784 24.067l-0.321 23.798 11.976 7.0932c6.587 3.9013 17.376 9.8994 23.976 13.329 6.6 3.4296 15.825 8.3003 20.5 10.824s8.7888 4.6037 9.1418 4.6229c0.3531 0.019 0.5167-11.722 0.3637-26.092zm13.828 17.324c2.6583-1.4835 10.533-6.6757 17.5-11.538 6.9667-4.8625 15.72-10.389 19.452-12.28 3.7319-1.8918 10.345-6.0792 14.696-9.3054 4.3512-3.2261 13.223-8.4334 19.715-11.572 11.82-5.7141 30.236-16.489 32.1-18.782 0.908-1.1167-0.4302-37.514-1.4203-38.631-0.2003-0.2258-1.1949 0.3412-2.2102 1.2601-4.9306 4.4621-79.167 43.069-90.512 47.071-5.1685 1.8232-11.818 4.612-14.776 6.1972l-5.3786 2.8823-0.2671 25.859-0.2671 25.859 3.2671-2.1617c1.7969-1.189 5.4421-3.3755 8.1004-4.8591zm264.98-35.447c-0.1017-7.8376-0.2142-17.646-0.25-21.796l-0.065-7.5459-11.25-6.4192c-13.542-7.7274-38.809-20.536-42.177-21.381l-2.4222-0.6079-0.078 19.25-0.079 19.25 7.2532 4.0717c14.706 8.2556 49.253 28.882 49.253 29.408 0 0.012-0.083-6.3914-0.1848-14.229zm181.31 7.1248c-0.3438-1.7187-0.625-11.794-0.625-22.389v-19.264l-7.25-3.5601c-3.9875-1.958-16.475-9.2021-27.75-16.098s-21.488-12.544-22.696-12.551c-2.6398-0.016-9.1677 3.329-39.804 20.395-5.5 3.0638-10.45 5.571-11 5.5717-2.1357 0 28.224-17.995 42.302-25.077 4.0163-2.0205 7.6163-4.0222 8-4.4483 0.3838-0.4261 0.066-0.408-0.7068 0.04-0.8472 0.4915-1.1654 0.4279-0.8018-0.1604 1.1374-1.8403-27.869-58.334-29.951-58.334-1.6675 0-27.241 14.469-43.842 24.804-4.95 3.0818-9.1428 5.6918-9.3172 5.8-0.7437 0.461 5.4242 11.371 9.5368 16.87 4.4266 5.9182 7.4016 11.084 9.3804 16.289 1.3703 3.6041 0.914 3.0494-5.1611-6.2742-2.8629-4.3938-6.2996-9.2955-7.637-10.893-1.3375-1.5971-3.9307-5.8721-5.7628-9.5l-3.331-6.5961-13.354-7.18c-7.3447-3.949-14.592-7.6504-16.104-8.2253l-2.75-1.0452-0.014 15.225c-0.01 8.3738-0.2676 16.171-0.578 17.328-0.4983 1.8561 1.8179 3.4321 19.764 13.448 11.18 6.2398 24.519 13.685 29.642 16.545 5.1227 2.8597 9.6227 5.5347 10 5.9443 1.2936 1.4041-34.97-17.923-74.421-39.663-8.859-4.8819-16.396-8.8762-16.75-8.8762s-0.6427 2.412-0.6427 5.3599c0 4.381-2.4608 32.514-3.2788 37.484-0.1295 0.7868 4.7772 4.1046 11.831 8 6.6287 3.6607 17.204 9.5119 23.5 13.003 15.534 8.6123 38.843 21.082 53.822 28.793l12.374 6.3704-0.2866-15.755c-0.1575-8.6654-0.1406-17.555 0.038-19.755 0.4359-5.3784 1.7455 12.128 1.8888 25.25 0.061 5.6375 0.3358 10.25 0.6095 10.25 0.6146 0 15.916-8.4385 28.002-15.443 4.95-2.8687 12.15-6.9427 16-9.0534s7.1509-4.2154 7.3354-4.6771c0.1845-0.4616 0.6732-0.6306 1.086-0.3755s0.5726-6.3796 0.3552-14.744c-0.2208-8.4935 0.061-17.194 0.6389-19.708 0.8755-3.8096 0.9641-2.9833 0.5772 5.3861-0.2514 5.4374-0.17 14.576 0.1807 20.309l0.6378 10.423 3.9959 2.0386c2.1978 1.1212 8.1576 4.8071 13.244 8.1909 22.372 14.883 36.674 23.59 38.824 23.634 0.4812 0.01 0.5937-1.3881 0.25-3.1069zm-527.62-23.869v-23.994l-16.249-8.1364c-8.9368-4.475-20.136-10.328-24.887-13.006-4.751-2.6782-9.1391-4.8695-9.7512-4.8695-1.2748 0-1.5172 19.083-0.4615 36.337l0.6515 10.648 7.0985 3.8731c3.9042 2.1302 10.698 5.79 15.098 8.1329 4.4 2.343 8.4579 4.6217 9.0176 5.0638 1.6189 1.2789 17.904 9.9095 18.732 9.928 0.4125 0.01 0.75-10.781 0.75-23.977zm68-12.972v-19.966l-38.25-18.876c-21.037-10.382-40.05-19.459-42.25-20.172-6.7274-2.1787-17.52-7.9702-27.312-14.655-5.1263-3.5001-9.7053-6.3638-10.176-6.3638-1.0236 0-1.658 11.071-1.5742 27.47l0.061 11.97 7.5 4.3192c4.125 2.3757 23.025 12.169 42 21.762 18.975 9.5938 38.775 19.81 44 22.703 8.2879 4.5888 23.062 11.427 25.25 11.686 0.4125 0.049 0.75-8.8959 0.75-19.877zm7.124 15.521c2.4068-1.3451 8.651-3.9438 13.876-5.7748 5.225-1.8311 17.038-7.2814 26.25-12.112l16.75-8.7827v-14.796c0-8.1377-0.2866-17.538-0.637-20.89l-0.6369-6.0941-4.6131 2.3429c-2.5371 1.2885-8.137 4.4288-12.444 6.9783-4.3071 2.5495-15.332 8.5107-24.5 13.247-9.168 4.7364-17.232 9.0526-17.919 9.5915-0.9212 0.7223-1.25 5.9448-1.25 19.858 0 10.383 0.1683 18.878 0.374 18.878 0.2058 0 2.3433-1.1005 4.75-2.4456zm474.38-32.064c6.6-3.981 14.025-8.2441 16.5-9.4736 8.9512-4.4468 12.996-7.4455 12.998-9.636 0-1.1655 0.6313-5.8905 1.4006-10.5 1.846-11.06 2.8008-26.053 1.7621-27.671-0.6341-0.9876-2.3311-0.4234-7.2445 2.4086-16.845 9.7093-23.482 13.377-24.209 13.379-0.436 0-5.0038 2.308-10.15 5.126l-9.3577 5.1237-0.6083 15.626c-0.3346 8.5945-0.8231 18.22-1.0856 21.39l-0.4772 5.7632 4.2361-2.1488c2.3298-1.1819 9.636-5.406 16.236-9.387zm-20.985-17.957 0.7274-14.55-8.6086-4.0341c-4.7348-2.2188-14.352-7.6893-21.371-12.157s-16.813-10.342-21.763-13.056-9.45-5.276-10-5.6952-4.6-2.69-9-5.0463c-4.4-2.3562-9.9328-5.3989-12.295-6.7615-2.3623-1.3626-4.4712-2.3015-4.6863-2.0863-0.2151 0.2151 1.6572 3.7573 4.1607 7.8715 4.6777 7.6871 16.484 31.032 22.007 43.512 3.0949 6.9948 3.1665 7.0662 13.463 13.419 5.6932 3.5127 15.076 9.3321 20.851 12.932s13.65 8.2242 17.5 10.276l7 3.7313 0.6439-6.9035c0.3542-3.7968 0.9713-13.451 1.3713-21.453zm-381.61 15.582c5.8263-3.2359 14.824-7.9998 19.995-10.586 5.1711-2.5865 11.134-5.8488 13.25-7.2494l3.8482-2.5466v-44.786l-3.25 1.6748c-1.7875 0.9211-7.0796 4.2467-11.76 7.3902s-11.431 7.1818-15 8.9739c-13.179 6.617-19.984 11.142-20.116 13.376-0.6191 10.448 0.7799 39.636 1.8998 39.636 0.2971 0 5.3072-2.6476 11.134-5.8835zm166.15-28.191c0.7118-9.6659 1.044-18.226 0.7382-19.023-0.3058-0.7969-4.9967-4.1698-10.424-7.4954-5.4276-3.3256-17.518-10.914-26.868-16.862-15.51-9.8677-29.089-18.184-33.843-20.729-1.4541-0.7783-1.6715-0.7036-1.0057 0.3453 1.3406 2.112 12.051 18.548 17.814 27.338 7.2531 11.062 11.534 18.053 11.534 18.835 0 0.3631 1.5344 2.7987 3.4097 5.4125 1.8754 2.6138 5.904 9.8378 8.9524 16.053l5.5427 11.301 21.595 10.604 0.6302-4.1028c0.3466-2.2565 1.2125-12.011 1.9244-21.677zm-244.15-3.456 0.099-12.03-11.75-6.9035c-10.559-6.2041-51.926-28.536-52.859-28.536-0.2076 0-0.1256 6.1875 0.1821 13.75s0.5002 17.648 0.4277 22.412l-0.1317 8.6619 12.315 5.8211c6.7735 3.2016 20.866 10.191 31.316 15.532l19 9.7113 0.6507-8.1943c0.358-4.5069 0.6955-13.608 0.75-20.225zm11.099 22.628c4.675-2.3907 11.2-5.6875 14.5-7.3261s8.475-4.4596 11.5-6.269c6.7794-4.055 32.354-18.135 44.5-24.499 4.95-2.5936 13.664-7.6916 19.365-11.329s11.213-6.8823 12.25-7.2113c1.7636-0.5598 1.8849-1.883 1.8849-20.566v-19.968l-2.1172 1.1331c-1.1645 0.6233-6.902 4.3903-12.75 8.3712-5.8481 3.9809-16.476 10.288-23.617 14.015-7.1415 3.7276-14.792 8.0063-17 9.5084-2.2085 1.502-8.2904 4.8034-13.515 7.3363-11.347 5.5007-27.927 14.366-37.25 19.917l-6.75 4.0189-0.1981 14.635c-0.109 8.0494-0.2396 16.554-0.2904 18.899-0.051 2.3449 0.1509 4.1324 0.4481 3.9722s4.3654-2.2473 9.0404-4.638zm467.5-30.262c10.415-5.2909 21.8-11.887 29.5-17.091l4.5-3.0413-0.3426-11.005c-0.1884-6.0528 0.1802-14.58 0.819-18.949 0.6389-4.3692 1.018-8.08 0.8426-8.2463-0.1755-0.1664-3.244 1.4973-6.819 3.6969s-15.388 8.3273-26.25 13.617l-19.75 9.6178v5.7179c0 3.1448 0.5111 6.9846 1.1359 8.5329 1.3256 3.2855 1.6292 17.075 0.4999 22.709l-0.7805 3.894 3.3224-2.1864c1.8273-1.2024 7.8223-4.4724 13.322-7.2664zm-17.288-4.8352c0.037-4.675-0.445-9.7668-1.0721-11.315s-1.1437-5.1483-1.148-8c-0.01-4.369-0.3607-5.3605-2.25-6.3006-3.6171-1.8-15.866-8.3871-20.742-11.154-2.475-1.4046-8.775-5.5678-14-9.2514-7.9974-5.6381-31.542-20.228-54-33.462-3.025-1.7826-8.2-4.8969-11.5-6.9207-7.5509-4.6308-7.9257-3.6639-3.1779 8.1974 1.9169 4.7889 5.8484 14.718 8.7367 22.065s6.3239 14.632 7.6347 16.19c2.093 2.4874 15.064 10.354 22.387 13.578 1.4193 0.6247 4.5693 2.4048 7 3.9558s7.7945 4.681 11.92 6.9555 12.675 7.4545 19 11.511c6.325 4.0566 15.55 9.499 20.5 12.094 8.844 4.6367 9.0143 4.6807 9.8221 2.5385 0.4521-1.199 0.8527-6.005 0.8902-10.68zm-183.82 9.4182c0.3339-0.87 0.607-8.4532 0.607-16.852v-15.27l-11.25-6.5389c-9.8258-5.711-21.998-12.53-44.25-24.788-3.3-1.818-7.35-4.1282-9-5.1337-1.65-1.0056-3.2544-1.83-3.5654-1.8321-0.3109 0-0.4106 7.2766-0.2216 16.175l0.3438 16.178 4.9321 3.3215c2.7127 1.8268 5.2584 3.3215 5.6572 3.3215 0.3987 0 1.654 0.8213 2.7894 1.8251 3.5633 3.15 50.889 31.132 52.708 31.164 0.3537 0.01 0.9162-0.7005 1.25-1.5705zm-342.84-10.668c-0.3789-5.0875-1.0035-14.973-1.3881-21.968-0.3845-6.9949-1.1411-13.131-1.6812-13.636-0.5402-0.5048-8.8571-5.0797-18.482-10.166s-21.008-11.268-25.295-13.736c-4.2873-2.4679-8.0121-4.2701-8.2773-4.0049s-0.1733 10.467 0.2042 22.671c0.6543 21.151 0.7843 22.239 2.7774 23.258 1.15 0.5879 5.9159 3.6577 10.591 6.8217 9.3947 6.3583 19.849 11.837 27.5 14.412 2.75 0.9255 6.575 2.5446 8.5 3.5979 6.1283 3.3533 6.3223 3.1 5.5514-7.251zm72.767-2.1912c3.8082-2.5844 19.613-11.051 38.682-20.722 17.507-8.879 15.973-6.1294 15.29-27.41l-0.5798-18.074-10.605 4.7388c-5.8329 2.6064-13.305 6.3686-16.605 8.3604-3.3 1.9919-12.013 6.6427-19.362 10.335l-13.362 6.7135 0.6047 6.5c0.3326 3.575 0.6079 12.238 0.6118 19.25 0 7.0125 0.3943 12.75 0.8676 12.75 0.4732 0 2.4792-1.0986 4.4578-2.4412zm-7.8352-24.219-0.6783-13.16-7.1524-3.1645c-7.7996-3.4508-25.52-12.96-46.652-25.033-27.349-15.626-50.704-28.802-58.25-32.863l-7.75-4.171v18.911c0 18.74 0.021 18.925 2.3471 20.449 2.7412 1.7961 18.72 10.374 63.653 34.17 17.875 9.4664 37.45 20.161 43.5 23.765l11 6.5532 0.3307-6.1479c0.1819-3.3813 0.025-12.07-0.3476-19.308zm327.92 12.321c17.494-10.613 27.247-16.061 34.346-19.185 5.9874-2.6342 7.2311-3.7522 5.4194-4.8719-1.4325-0.8853-18.442-43.616-19.646-49.355-0.763-3.6359-1.1778-3.859-3.4444-1.8521-0.8683 0.7688-8.1037 5.1288-16.079 9.6888s-18.487 10.906-23.359 14.102c-8.4887 5.568-11.485 6.9861-10.131 4.7952 1.1314-1.8307 15.694-11.213 31.49-20.288 8.525-4.8977 15.95-9.26 16.5-9.694 1.4104-1.1129 7.9564-4.7392 15-8.3096 3.3-1.6727 9.825-5.5008 14.5-8.5069s12.486-7.6042 17.359-10.218l8.8586-4.7524-7.2804-4.2521c-4.0043-2.3386-10.691-5.7695-14.859-7.6242s-8.9282-4.102-10.578-4.994-8.4-3.8176-15-6.5013-14.25-6.3858-17-8.2268c-5.0227-3.3626-20.817-12.903-32-19.329-3.3-1.8964-7.4625-4.5369-9.25-5.8678s-4.7597-3.5484-6.6049-4.9278l-3.355-2.5081-2.8266 2.2581c-4.1501 3.3152-29.153 19.299-34.964 22.352-2.75 1.4447-5.9045 3.4541-7.0101 4.4653-1.1055 1.0113-4.6386 3.0011-7.8513 4.4219-5.2847 2.3372-20.639 13.092-22.126 15.498-1.2871 2.0824-13.521 8.5771-24.438 12.973-6.2841 2.5306-11.578 5.0587-11.765 5.6181-0.1865 0.5593 1.1301 1.5535 2.9256 2.2093 4.5199 1.6509 39.909 21.386 53.265 29.704 17.965 11.189 20.39 12.519 34.5 18.93 16.907 7.6818 27 13.345 27 15.15 0 0.9093-2.5938-0.1823-7.4759-3.1463-4.1118-2.4963-10.299-5.6815-13.75-7.0781-10.016-4.0542-28.398-13.746-39.774-20.972-9.4362-5.9937-53-30.663-56.562-32.03-1.2167-0.4669-1.4378 2.1438-1.4378 16.978v17.529l3.75 1.1814c3.8146 1.2017 24.074 11.814 50.25 26.322 7.975 4.4201 18.55 10.244 23.5 12.942s13.05 7.2746 18 10.17 15.525 8.5209 23.5 12.501c7.975 3.9805 15.986 8.1436 17.803 9.2515 1.8164 1.108 3.4889 1.8282 3.7165 1.6005 0.2276-0.2276-2.5628-5.3414-6.2009-11.364-6.5395-10.825-13.456-24.604-14.783-29.45-0.3766-1.375 2.663 3.575 6.7546 11s9.0145 16.073 10.94 19.217c1.9253 3.1443 4.0659 7.0818 4.7568 8.75 0.691 1.6681 1.7209 3.033 2.2886 3.033 0.5678 0 6.4757-3.3025 13.129-7.3388zm133.1-14.161c3.084 0 51.495-23.963 51.495-25.49 0-0.7458-17.362-9.4553-21-10.534-1.375-0.4078-4.0854-2.1443-6.023-3.8588-7.9669-7.0493-50.522-33.539-72.477-45.115-4.95-2.61-9.7104-5.3657-10.579-6.1238s-2.1629-1.3783-2.8769-1.3783c-1.8241 0-14.751 7.2383-26.342 14.75-5.3884 3.4921-10.563 6.6285-11.5 6.9699s-4.0786 1.9446-6.9822 3.5626l-5.2793 2.9418 7.2793 4.195c4.0036 2.3072 14.479 8.4749 23.279 13.706s20.5 12.154 26 15.384 13.804 8.5995 18.454 11.932c9.1366 6.5487 34.23 20.619 35.046 19.652 0.275-0.3258 0.9523-0.5924 1.505-0.5924zm-252.69-7.2503c0.1713-3.7123 0.018-11.031-0.341-16.263l-0.6523-9.5136-13.159-7.2702c-7.2375-3.9986-18.334-9.6648-24.659-12.592-6.6439-3.0742-18.654-10.091-28.44-16.617-9.3173-6.2126-22.142-14.078-28.5-17.479s-14.049-7.7842-17.091-9.7404-8.5041-4.9045-12.137-6.5519c-3.6331-1.6473-9.2799-4.8111-12.548-7.0308-5.6903-3.8642-11.522-7.3131-21.283-12.586-2.475-1.3371-10.462-6.0311-17.75-10.431l-13.25-8v5.257c0 2.8914 0.29 9.9972 0.6445 15.791l0.6445 10.534 16.606 9.2798c9.133 5.104 18.405 10.533 20.605 12.065s8.275 4.6917 13.5 7.0224c11.388 5.0796 102.18 58.233 128.9 75.461 4.6193 2.9787 8.4443 5.4157 8.5 5.4155 0.056-1e-4 0.2413-3.0376 0.4126-6.75zm-132.03-3.9162c5.8932-3.1165 17.128-9.7113 24.965-14.655 13.316-8.3992 14.251-9.1914 14.259-12.084 0-1.7023 0.2844-5.3898 0.6215-8.1946l0.6127-5.0995-17.401-9.991-13.671 7.2299c-7.5189 3.9764-15.58 8.2942-17.913 9.595l-4.2417 2.3652v11.5c0 11.361 0.9068 25 1.6642 25 0.2147 0 5.2121-2.5499 11.105-5.6665zm-77.119-15.584c-0.2514-7.8375-0.058-19.637 0.4305-26.222 0.6825-9.2061 0.5993-12.26-0.3599-13.219-0.686-0.6861-10.872-5.5713-22.635-10.856-12.67-5.692-24.614-11.819-29.304-15.03-4.3543-2.9821-8.4113-5.422-9.0154-5.422-0.7817 0-0.9088 5.236-0.4406 18.16 0.3618 9.9882 0.6655 21.576 0.6749 25.75l0.017 7.5897 10.733 6.141c9.4811 5.4248 21.318 11.897 43.233 23.638 3.575 1.9154 6.6402 3.5362 6.8116 3.6017 0.1715 0.065 0.1061-6.2934-0.1452-14.131zm32.334-1.3879c4.675-2.6872 11.425-6.1778 15-7.7569s12.709-6.1998 20.297-10.268c7.5884-4.0684 17.601-9.1545 22.25-11.302s8.4529-4.1154 8.4529-4.3721c0-0.5679-22.938-13.855-32.117-18.604l-6.6173-3.4236-7.3827 2.6085c-8.3689 2.957-17.549 5.8034-36.557 11.335l-13.175 3.8339-0.3253 13.044c-0.179 7.174-0.1707 19.188 0.018 26.697l0.3437 13.653 10.656-5.2794c5.861-2.9037 14.481-7.4781 19.156-10.165zm-94.511-20.38c-0.3459-0.5595-0.8461-12.147-1.1116-25.75l-0.4829-24.733-11.288-6.5817c-6.2082-3.6199-12.108-6.8963-13.11-7.2809-2.8884-1.1084-18.401-10.567-25.186-15.357l-6.1887-4.3688-0.3113 11.794c-0.1712 6.4867-0.1775 18.581-0.014 26.877l0.2973 15.082 8.2027 4.3212c4.5116 2.3766 15.403 8.4661 24.203 13.532 22.829 13.143 26.558 15.003 24.989 12.464zm230.43-24.983c0.031-7.975-0.1953-15.4-0.5032-16.5-0.3757-1.3426-10.314-7.6409-30.236-19.163-16.322-9.4394-39.802-23.096-52.177-30.349s-23.716-13.817-25.203-14.589l-2.7028-1.4027-0.013 16.898-0.013 16.898 12.716 7.957c6.9939 4.3763 14.676 8.713 17.071 9.637s6.9272 3.4271 10.071 5.5623c3.1443 2.1352 10.185 6.2391 15.646 9.1197 8.999 4.7471 31.873 19.354 39.924 25.495 1.7681 1.3486 5.6425 3.7799 8.6098 5.4028 4.8491 2.6522 5.4639 2.7779 6.0748 1.242 0.3739-0.9399 0.7052-8.2339 0.7364-16.209zm-149.92-0.025c18.564-5.3275 37.062-12.281 36.965-13.896-0.064-1.0773-38.466-21.972-48.811-26.559-5.6492-2.5047-13.508-6.2303-17.463-8.279-3.9554-2.0488-7.5292-3.8787-7.9417-4.0666s-0.75 10.484-0.75 23.716v24.058l3.25 1.6943c8.0992 4.2221 18.384 8.2626 19.75 7.759 0.825-0.3042 7.575-2.2964 15-4.4272zm-39.777-24.725c0.1229-10.312 0.2354-21.176 0.25-24.142l0.027-5.392-9.5-5.3987c-5.225-2.9692-23.9-12.534-41.5-21.256-17.6-8.7213-35.15-17.918-39-20.438-3.85-2.5195-7.2541-4.5905-7.5647-4.6023-0.3105-0.012-0.6783 10.062-0.8172 22.387l-0.2527 22.408 7.0933 4.5887c3.9014 2.5238 12.594 7.6873 19.317 11.475 30.048 16.927 35.727 20.23 43.724 25.44 7.2763 4.7393 24.928 13.586 27.25 13.658 0.4125 0.013 0.8505-8.4143 0.9734-18.727zm193.33 2.8784c0.5225-0.4794 5.675-2.707 11.45-4.9502 14.659-5.6941 18.63-7.7495 25.515-13.208 9.1205-7.2304 22.445-15.97 24.347-15.97 0.9307 0 2.7853-0.7875 4.1213-1.75s4.807-3.1 7.7135-4.75c12.332-7.0008 36.234-21.58 36.75-22.416 1.4422-2.3335-25.549-17.601-39.143-22.142-3.9193-1.3089-10.347-5.0116-17.498-10.079-6.2164-4.4056-13.871-9.3789-17.009-11.052-3.1387-1.6729-7.4767-4.5567-9.6401-6.4084-4.4454-3.8052-23.676-15.403-25.539-15.403-0.6702 0-1.646 0.404-2.1685 0.8979-0.5225 0.4938-9.275 5.2692-19.45 10.612s-24.226 13.483-31.225 18.09-19.374 11.823-27.5 16.035c-8.126 4.2129-18.95 10.348-24.052 13.633l-9.2776 5.9733 6.2776 3.7181c20.548 12.17 45.491 26.766 46.778 27.373 0.825 0.3891 13.425 7.8937 28 16.677s27.422 15.974 28.55 15.98c1.1275 0.01 2.4775-0.3815 3-0.8609zm-154.11-31.763-0.2568-15.634-6.6632-3.8656c-3.6648-2.1261-6.8852-3.8656-7.1564-3.8656s-1.9255-1.0751-3.6763-2.3891c-6.6355-4.9801-57.576-35.124-58.158-34.415-0.137 0.1672-0.5411 8.4114-0.8981 18.32l-0.6489 18.017 10.261 5.2089c5.6435 2.8649 16.786 8.9094 24.761 13.432 12.515 7.0977 40.252 20.826 42.078 20.826 0.3384 0 0.4997-7.0355 0.3585-15.634zm37.549-13.867 0.015-16.002-4.25-2.178c-2.3375-1.1979-6.05-3.0365-8.25-4.0858s-10.423-5.3363-18.273-9.5266c-7.8501-4.1904-23.825-12.296-35.5-18.012-13.682-6.6991-24.071-12.525-29.229-16.391-10.656-7.9874-22.155-15.303-24.055-15.303-4.1101 0-23.443 12.492-23.443 15.147 0 0.4152 3.0375 2.4243 6.75 4.4647 19.252 10.581 53.86 30.523 66.933 38.568 8.1491 5.0152 24.267 14.849 35.817 21.853 11.55 7.0038 23.453 14.354 26.452 16.334 3.9923 2.6361 5.6611 3.2695 6.2346 2.3664 0.4308-0.6781 0.7902-8.4338 0.7986-17.235zm-116.12-36.18c0.13-11.125 0.1167-11.192-2.6193-13.119-2.3462-1.6526-26.222-15.199-26.788-15.199-0.1084 0-3.2915 2.0751-7.0737 4.6113-9.3714 6.2842-22.61 17.576-21.662 18.475 2.4935 2.3655 21.693 13.147 37.94 21.306l18.833 9.4572 0.6193-7.1748c0.3406-3.9461 0.6781-12.207 0.75-18.357zm121.07 14.028c1.0152-1.2905 2.1139-2.3464 2.4416-2.3464s3.6379-1.9482 7.3561-4.3293c7.496-4.8004 39.129-21.671 40.634-21.671 0.5256 0 5.269-2.8686 10.541-6.3746 5.272-3.5061 18.685-10.995 29.807-16.641 11.122-5.6467 20.004-10.619 19.738-11.049-0.2658-0.4301-5.2278-3.404-11.027-6.6087-5.7989-3.2047-16.931-9.9223-24.738-14.928-7.8072-5.0057-15.77-9.9054-17.695-10.888-7.0835-3.6164-33.652-19.851-38.5-23.525-6.0864-4.6129-16.587-10.979-18.116-10.982-0.6138 0-8.0388 3.8812-16.5 8.628-13.614 7.6378-30.621 17.066-37.884 21.002-1.375 0.7452-3.0891 1.3577-3.809 1.361-0.72 0-1.0415 0.4391-0.7145 0.9682s-2.6126 2.6666-6.5323 4.75c-3.9198 2.0834-10.798 5.9921-15.286 8.6859-4.4873 2.6939-11.534 6.4714-15.659 8.3945-4.125 1.9231-11.686 5.9809-16.803 9.0174l-9.3029 5.5207 3.3029 1.9625c4.6712 2.7755 17.487 11.513 22.731 15.498 2.4357 1.8508 18.371 10.31 35.412 18.799 17.041 8.4888 31.516 15.876 32.167 16.416 3.117 2.5869 21.322 10.817 23.79 10.756 1.6851-0.042 3.5324-1.003 4.6439-2.4161zm-159.94-41.085c4.125-2.759 8.8727-6.5339 10.55-8.3887s4.1468-4.0982 5.4868-4.9855l2.4362-1.6132-5.4867-2.7678c-5.4754-2.762-22.987-14.322-22.987-15.174 0-0.563 0.6769-0.1644 10.5 6.1821 4.4 2.8427 10.666 6.5891 13.924 8.3254l5.9239 3.1568 25.152-13.747 0.5774-6.3744 0.5774-6.3745 0.1726 5.25c0.095 2.8875 0.5659 5.25 1.0466 5.25 0.4808 0 2.9523-1.1615 5.4922-2.5811l4.6182-2.5812-7.2422-3.8691c-3.9832-2.1281-9.9422-5.3026-13.242-7.0546s-9.6-5.5112-14-8.3538-11.712-7.5632-16.25-10.49-8.25-5.5421-8.25-5.811 1.2375 0.3423 2.75 1.3583c8.0078 5.3789 39.162 23.591 48.322 28.249l10.554 5.3658 4.2807-2.1839c2.3545-1.2012 7.0512-3.8715 10.437-5.9342 3.386-2.0626 8.6314-5.0487 11.656-6.6357 9.0519-4.7489 9.1372-4.1808-1.6835-11.209-22.387-14.541-47.423-29.063-72.816-42.237-4.95-2.568-11.882-6.5507-15.405-8.8504-3.5228-2.2998-6.7853-4.1814-7.25-4.1814-0.4648 0-0.8484 1.9125-0.8526 4.25 0 2.3375-0.423 6.95-0.9309 10.25-1.0513 6.8317-2.3704 24.553-2.3818 32-0.019 12.411 1.6955 36.134 2.706 37.442 0.8498 1.0996 0.8176 1.2636-0.1357 0.6909-1.4673-0.8815-1.6319 7.0879-0.5937 28.736l0.6564 13.686 2.0936-1.8887c1.1516-1.0388 5.4687-4.1461 9.5937-6.9052zm107.38-61.925c3.9141-2.0154 8.4666-4.3352 10.117-5.1552s6.7536-3.6873 11.341-6.3717 12.463-6.9409 17.5-9.4589c13.08-6.5385 12.885-6.142 4.9688-10.098-11.063-5.5282-34.488-18.392-38.85-21.334-2.222-1.4988-9.7767-5.9362-16.788-9.861-7.0116-3.9247-17.344-10.606-22.96-14.846-5.6164-4.2408-13.817-9.4007-18.224-11.466l-8.0121-3.7557-10.488 5.6425c-5.7683 3.1034-13.789 7.4286-17.824 9.6114-4.0351 2.1829-10.178 6.1196-13.651 8.7482-3.4729 2.6287-7.6612 5.575-9.3074 6.5474l-2.9929 1.7679 7.6439 5.0535c4.2042 2.7794 11.244 6.9104 15.644 9.1801 22.556 11.635 52.47 29.273 71 41.862 6.05 4.1105 11.622 7.5016 12.383 7.5359 0.7609 0.034 4.5859-1.5865 8.5-3.6018zm436.74 575.76c-4.6646-2.5915-8.6061-5.0069-8.7586-5.3678-0.1524-0.361 3.776 1.5627 8.7299 4.275 4.954 2.7124 9.1277 5.2168 9.2749 5.5658 0.3652 0.8651 0.344 0.8559-9.2462-4.473zm1.9043-48.392c-3.5835-1.884-5.4802-3.1696-4.2187-2.8509 1.2612 0.3181 4.6864 1.9981 7.6107 3.732 6.7619 4.0094 5.0463 3.5638-3.392-0.8808zm0.7258-92.772c-3.1625-1.6324-5.75-3.1922-5.75-3.4663s2.7 0.8646 6 2.5304 6 3.2473 6 3.5144c0 0.6667 0.1854 0.7432-6.25-2.5785zm-557.84-450.27c-5.0888-3.3552-5.0744-3.3724 0.3565-0.4374 3.1107 1.6817 5.7987 3.3484 5.9734 3.705 0.5226 1.067-0.7605 0.4046-6.3303-3.2679z" inkscape:label="fg" id="path208"/></g></g></svg>