<svg width="601.097" height="492.012" inkscape:version="1.1.1 (3bf5ae0d25, 2021-09-20)" sodipodi:docname="isometric-map-icons-dungeon-1.svg" version="1.1" viewBox="4365.175 2767.820 601.097 492.012" xml:space="preserve" id="svg536" xmlns:inkscape="http://www.inkscape.org/namespaces/inkscape" xmlns:sodipodi="http://sodipodi.sourceforge.net/DTD/sodipodi-0.dtd" xmlns="http://www.w3.org/2000/svg" xmlns:svg="http://www.w3.org/2000/svg" xmlns:rdf="http://www.w3.org/1999/02/22-rdf-syntax-ns#" xmlns:cc="http://creativecommons.org/ns#"><defs id="defs538"/><sodipodi:namedview bordercolor="#ffffff" borderopacity="1" inkscape:current-layer="g8" inkscape:cx="3199.3086" inkscape:cy="2041.5679" inkscape:deskcolor="#cccccc" inkscape:pagecheckerboard="1" inkscape:pageopacity="0" inkscape:showpageshadow="0" inkscape:window-height="1080" inkscape:window-maximized="1" inkscape:window-width="1920" inkscape:window-x="0" inkscape:window-y="0" inkscape:zoom="0.13690458" pagecolor="#999999" showgrid="false" id="namedview2" inkscape:pageshadow="2"/><metadata id="metadata540"><rdf:rdf><cc:license rdf:about="http://creativecommons.org/licenses/by-sa/4.0/"><cc:permits rdf:resource="http://creativecommons.org/ns#Reproduction"/><cc:permits rdf:resource="http://creativecommons.org/ns#Distribution"/><cc:requires rdf:resource="http://creativecommons.org/ns#Notice"/><cc:requires rdf:resource="http://creativecommons.org/ns#Attribution"/><cc:permits rdf:resource="http://creativecommons.org/ns#DerivativeWorks"/><cc:requires rdf:resource="http://creativecommons.org/ns#ShareAlike"/></cc:license><cc:work rdf:about=""><cc:license rdf:resource="http://creativecommons.org/licenses/by-sa/4.0/"/></cc:work></rdf:rdf></metadata><g transform="translate(2915.3 722.02)" inkscape:groupmode="layer" inkscape:label="dungeon_stairs" id="g138"><g transform="translate(0 600)" inkscape:label="dungeon_ramp_1x4" id="g136"><path d="m1463.8 1659.4 2.2221-98.697s-0.1835-6.7443-0.1146-10.279c0.069-3.535 0.3996-8.2867 0.6748-11.418 0.2752-3.1314 0.2468-12.505 0.2468-12.505l68.924-40.444 40.379-22.588 4.1265-2.3824s17.995 15.671 24.073 21.352c6.0777 5.6805 83.25 72.022 87.674 75.988s109.7 96.057 111.04 97.238c1.3397 1.1807 109.68 95.889 116.82 101.92 7.1464 6.026 115.09 100.99 115.09 100.99s-23.767 13.774-33.127 19.518c-9.3604 5.7447-37.818 22.56-42.662 25.357s-33.873 19.682-33.873 19.682-10.181-5.1352-12.729-6.6341c-2.5485-1.4989-25.862-14.738-30.382-17.348-4.5195-2.6093-44.347-25.393-47.234-26.885-2.8871-1.4927-33.562-18.912-38.63-21.838-5.0671-2.9254-60.544-34.404-63.834-36.303-3.2904-1.8998-45.59-25.756-50.453-28.732-4.8632-2.9754-58.473-32.77-64.618-36.574-6.1451-3.8042-48.426-27.648-51.995-29.709-3.5695-2.0609-30.135-17.012-30.135-17.012s-7.1101-3.754-7.7859-4.1532c-0.6758-0.3993-10.615-6.1896-10.934-6.3924-0.3189-0.2028-5.0171-3.5524-5.0171-3.5524l-20.959-13.062s-5.3919-3.519-7.083-4.4572-6.9956-3.8931-9.5237-5.3527-10.179-5.719-10.179-5.719z" fill="#fff" stop-color="#000000" style="paint-order:stroke fill markers" inkscape:label="bg" id="path132"/><path d="m1922.3 1922.7c-1.367-0.9719-30.16-17.428-63.985-36.568-221.49-125.33-323-183.19-323-184.1 0-0.6892 17.373 8.8038 52.323 28.59l5.8231 3.2967-1.0018-26.773 1.1778 13.777 1.1778 13.777 54 30.746 0.2672-8.15c0.147-4.4825-0.078-12.186-0.5-17.118l-0.7672-8.968-49.5-28.214c-27.225-15.518-55.35-31.597-62.5-35.732-18.059-10.445-16.478-10.399-16.617-0.475-0.064 4.5964-0.4572 11.282-0.8731 14.857-0.4634 3.9828-0.569 0.4975-0.2727-9l0.4836-15.5-24.651-13.876c-13.558-7.6321-24.476-14.051-24.264-14.263 0.2127-0.2128 7.2186 3.5064 15.568 8.2648s15.402 8.4313 15.671 8.1619c0.7451-0.7451 2.7447-28.586 2.1621-30.104-0.4507-1.1745-33.556-20.683-35.099-20.683-0.3354 0-0.6657 3.9375-0.734 8.75-0.068 4.8125-0.4706 11.675-0.8939 15.25-0.6638 5.6051-0.7163 5.1921-0.381-3 0.2138-5.225 0.3911-12.312 0.3939-15.75 0-3.8599 0.4241-6.25 1.1006-6.25 0.6025 0 14.588 7.65 31.079 17 16.491 9.35 30.385 17 30.875 17 0.4901 0 1.0317-5.7375 1.2036-12.75l0.3125-12.75 0.2174 13.548 0.2173 13.548 28.083 15.952c15.446 8.7734 28.496 16.102 29 16.285 0.5312 0.193 0.8902-5.7003 0.8528-14l-0.065-14.333-28.685-24.825c-19.459-16.84-28.789-24.319-29.009-23.251-0.1777 0.8661-1.5277 1.8393-3 2.1628-1.4722 0.3235-3.1268 0.7012-3.6768 0.8395-0.55 0.1382 0.4625 1.0104 2.25 1.9382 2.237 1.1611 3.2302 2.3802 3.1866 3.9112-0.062 2.1814-0.08 2.1843-0.9013 0.154-0.4609-1.1387-2.0524-2.8661-3.5368-3.8388-2.413-1.581-2.6389-2.2092-2.1317-5.9296 0.3257-2.3893 0.049-5.3113-0.6498-6.8618-0.6693-1.4853-13.367-13.273-28.217-26.195l-27-23.495-0.7715 14.195c-0.4243 7.8074-0.5992 15.208-0.3887 16.445 0.2106 1.2375-0.059 2.25-0.5996 2.25-0.6324 0-0.7233-5.5309-0.2551-15.52 0.521-11.117 0.4038-15.909-0.4132-16.894-0.9185-1.1067 0.2771-2.1966 6.1438-5.6002 17.702-10.27 61.377-35.302 62.284-35.698 3.8539-1.6823-6.428 4.7086-33.322 20.712-17.099 10.175-31.079 18.725-31.065 19 0.022 0.4482 15.687 14.139 24.359 21.289l3.3825 2.7887 36.37-21.395c20.003-11.767 37.474-21.934 38.823-22.594 7.5753-3.7027-5.0688 4.0649-37.777 23.208-19.927 11.662-36.127 21.481-36 21.819 0.1266 0.3385 5.9488 5.6 12.938 11.692 12.547 10.936 12.75 11.063 16 10.004 3.4804-1.1345 5.5926-1.288 10.002-0.7267 2.5972 0.3306 2.639 0.4256 1 2.2733-0.9408 1.0606-2.9818 2.712-4.5354 3.6698l-2.8249 1.7414 23.825 20.802c13.104 11.441 26.65 23.259 30.104 26.263 5.4472 4.738 6.573 5.3264 8.5 4.4429 5.6333-2.5829 52.417-30.68 55.302-33.213 1.7863-1.5684 4.974-3.408 7.0836-4.0879 2.1097-0.6799 4.2858-1.5561 4.8358-1.9472 2.4036-1.7092 12.5-7.1316 12.5-6.7134 0 0.2539-2.9428 2.3069-6.5396 4.562-5.6827 3.5631-6.5017 4.4514-6.25 6.779 0.2304 2.1314-0.4013 3.0875-3.0927 4.6806-2.8718 1.7-3.8442 1.8277-6.4432 0.8467-2.9348-1.1077-4.1659-0.5073-29.894 14.581-14.758 8.6549-26.9 16.186-26.983 16.736-0.082 0.55 21.192 19.617 47.276 42.371 26.084 22.754 73.176 63.854 104.65 91.334 31.472 27.48 58.364 50.861 59.76 51.959l2.5376 1.9961 4.2404-2.4091c2.3322-1.3249 16.165-9.3888 30.74-17.92 28.409-16.628 32.055-18.662 30.5-17.02-0.9436 0.9969-31.861 19.723-34 20.594-0.55 0.2237 0.35 1.623 2 3.1095 2.3266 2.096 2.4388 2.3383 0.5 1.0798-3.9838-2.586-5.0715-2.9231-6.1031-1.8915-0.6248 0.6248 1.7061 3.181 6.5673 7.202 4.1447 3.4284 7.5358 6.4815 7.5358 6.7846 0 0.6579-8.1657-5.7809-12.752-10.055-2.1776-2.0294-3.5839-2.6988-4.2564-2.0263-0.6726 0.6726 2.6279 4.0858 9.9896 10.331 6.0467 5.1294 11.562 10.05 12.256 10.935 1.4342 1.8278-5.2053-3.5932-16.238-13.258-4.125-3.6136-7.7951-6.5805-8.1557-6.5933-0.3606-0.013-5.4468 2.7496-11.303 6.1385-8.4605 4.8964-10.379 6.4053-9.3443 7.3481 0.7165 0.6525 8.5027 7.4294 17.303 15.06 53.557 46.438 86.443 75.714 85.949 76.513-0.4951 0.8011 0.1188 1.0548 2.0947 0.8657 0.2991-0.029 1.9086 1.0963 3.5767 2.5 1.6681 1.4036 3.7309 2.552 4.5839 2.552s8.8059-4.2181 17.673-9.3736 32.997-19.169 53.622-31.141 37.718-21.959 37.983-22.193c0.2658-0.2341-1.527-2.0831-3.984-4.109s-27.874-24.112-56.483-49.08c-28.609-24.968-52.781-46.055-53.716-46.86-1.7186-1.4792-2.9272-0.878-33.05 16.443-0.4125 0.2372-0.75 0.2101-0.75-0.06 0-0.2704 7.0262-4.6613 15.614-9.7578 14.665-8.7034 15.5-9.3605 13.744-10.818-1.0286-0.8532-26.969-23.504-57.646-50.335l-55.776-48.783-15.718 9.1426c-19.454 11.316-25.299 14.517-22.718 12.443 1.1-0.884 9.7588-6.1998 19.242-11.813 9.4829-5.6132 17.245-10.49 17.25-10.837 0.01-0.5456-107.18-94.482-193.16-169.29-15.22-13.242-27.708-24.443-27.75-24.893-0.1901-2.0144 5.0398 1.1277 11.989 7.2029 4.1611 3.638 104.65 91.664 223.31 195.61 118.66 103.95 217.46 190.37 219.55 192.04l3.8032 3.0428-7.6158 4.42c-4.1888 2.431-28.638 16.9-54.331 32.153-25.693 15.253-47.525 28.167-48.514 28.696-1.3039 0.6978-2.4839 0.4764-4.2849-0.8041zm-8.9854-7.442c0-0.215-11.362-10.219-25.25-22.232-13.888-12.012-37.257-32.312-51.933-45.109s-26.938-23.268-27.25-23.268-0.5669 7.1136-0.5669 15.808v15.808l51.75 29.593c48.862 27.942 53.25 30.364 53.25 29.4zm-106-76.52v-15.911l-55.724-48.339c-30.648-26.586-56.973-49.391-58.5-50.678l-2.7762-2.3389v31.936l17.25 9.8043c26.796 15.23 51.149 29.496 52.25 30.609 1.0024 1.0131-6.4816-2.9348-20.492-10.81-4.1207-2.3161-7.641-4.0624-7.8229-3.8806-0.1818 0.1819 0.1497 2.0604 0.7367 4.1744 0.5871 2.1141 1.0699 9.5636 1.0729 16.554 0 8.9304 0.3805 13.061 1.2663 13.888 1.9256 1.7988 70.063 40.687 71.489 40.801 0.9518 0.076 1.25-3.6952 1.25-15.811zm-76.003-53.547c-0.5936-3.8269-1.1732-7.0504-1.2879-7.1633-0.5401-0.5311-78.379-44.699-79.602-45.168-1.1489-0.4409-1.2839 0.6908-0.7605 6.3767 0.35 3.802 0.6949 11.471 0.7665 17.042l0.1301 10.13 81.258 46.198 0.288-10.229c0.1584-5.6258-0.1977-13.36-0.7914-17.187zm-42.997-49.442v-15.9l-44.75-25.506c-104.51-59.569-138.5-78.78-138.81-78.468-0.1825 0.1824-0.6235 5.7185-0.98 12.302-0.3566 6.5838-1.0152 13.417-1.4636 15.185-0.803 3.1661-0.715 3.2704 5.8443 6.9231 9.5239 5.3038 8.3071 4.6166 57.941 32.722 24.905 14.102 45.38 25.642 45.5 25.643 0.1202 0 0.1614-4.1612 0.092-9.25l-0.1269-9.2523 0.6391 9.2122c0.3515 5.0667 1.1007 9.6738 1.665 10.238 1.2554 1.2554 72.648 41.948 73.7 42.007 0.4125 0.023 0.75-7.1126 0.75-15.857zm-6.55-21.951c-0.5225-0.4681-20.075-17.417-43.45-37.664-23.375-20.247-43.512-37.717-44.75-38.823l-2.25-2.0108v28.033l24.75 14.051c65.139 36.98 68.268 38.715 65.7 36.414zm-25.435-112.66c1.8959-0.9804 2.7157-2.0299 2.3434-3-0.6854-1.7861-2.7005-1.9077-5.6743-0.3424-2.9113 1.5324-3.847 3.127-2.3815 4.0586 1.6951 1.0776 2.4192 0.9868 5.7124-0.7162zm-127.66-19.499c0.3881-1.9406 1.8596-3.6016 4.6815-5.2844l4.1156-2.4542-2.6699-0.6701c-1.4685-0.3686-3.1895-0.2439-3.8244 0.2771-0.6348 0.521-2.2793 1.1029-3.6543 1.2931-2.2938 0.3173-2.5 0.7655-2.5 5.4343 0 4.2262 0.2784 5.0161 1.6427 4.6614 0.9035-0.2349 1.8974-1.7006 2.2088-3.2572zm330.05 198.76-1.905-2.25 2.25 1.905c1.2375 1.0477 2.25 2.0602 2.25 2.25 0 0.8002-0.8048 0.2094-2.595-1.905zm-48.905-38.839c-62.579-50.354-65.037-52.42-65.218-54.815-0.2291-3.0408 4.2662-6.0959 8.9692-6.0959 3.708 0 3.9489 0.1719 3.5038 2.5-0.4053 2.1205-0.1032 2.5 1.9905 2.5 1.9379 0 2.3251-0.376 1.802-1.75-0.5143-1.3509-0.3944-1.4803 0.5258-0.5672 1.9342 1.9191 0.2906 4.3172-2.9588 4.3172-1.6214 0-3.1066-0.4757-3.3004-1.0571-0.2246-0.6738-1.9009-0.3994-4.6232 0.7568l-4.2709 1.8138 4.7899 3.5839c7.1256 5.3315 100.39 80.767 103.27 83.527 1.3625 1.3066 2.2625 2.3586 2 2.3378-0.2625-0.021-21.177-16.694-46.477-37.051zm-57.044-56.894c3.0541-1.1612 3.3583-3.0168 0.4944-3.0168-2.6714 0-7.9503 2.745-7.9503 4.1341 0 1.1072 2.6492 0.7102 7.4559-1.1173zm-60.906 34.125c0.8126-0.7342 48.129-28.537 50.95-29.938 0.6667-0.3311 0.6667-0.1518 0 0.5378-1.1664 1.2065-50.428 30.259-51.308 30.259-0.3258 0-0.1648-0.3863 0.3577-0.8584zm-196.81-40.831c-5.2356-3.1111-6.0658-4.256-1.2765-1.7605 5.0129 2.612 19.095 11.841 17.798 11.738-0.55-0.043-14.474-8.7611-16.522-9.978zm34.032 21.166c-3.7384-2.0281-15.524-9.2553-11.764-7.3105 1.65 0.8532 15.014 8.1473 15.014 8.4082 0 0.6435-0.1074 0.6072-3.25-1.0977zm-47.024-29.048c-3.7384-2.0281-3.5109-2.8728 0.25-0.928 1.65 0.8532 5.844 3.7501 5.844 4.011 0 0.6435-2.9514-1.3781-6.094-3.083zm-7-4c-3.7384-2.0281-14.189-8.3125-10.428-6.3677 1.65 0.8532 13.678 7.2045 13.678 7.4654 0 0.6435-0.1074 0.6072-3.25-1.0977zm75-56c-3.7384-2.0281-3.5109-2.8728 0.25-0.928 1.65 0.8532 23.404 12.008 23.404 12.269 0 0.6435-20.511-9.636-23.654-11.341zm-17.75-9.6318c-18.853-9.8577-68.21-37.92-67.661-38.469 0.2494-0.2493 7.2469 3.4 15.55 8.1095 8.3032 4.7096 15.371 8.5629 15.707 8.5629s0.4511-5.5936 0.257-12.43c-0.194-6.8366 0.012-11.778 0.4574-10.981 0.4456 0.797 0.6706 6.5852 0.5 12.863l-0.3102 11.414 13.229 7.5676c7.2758 4.1622 13.637 7.5676 14.136 7.5676 1.0818 0 3.0227 1.0294 13.886 7.364 4.5375 2.6461 8.25 4.9967 8.25 5.2235 0 0.566 0.9759 1.0394-14-6.7913zm106.44-6.0462-12.025-11.148 12.338 10.835c1.8103 1.5898 3.25 3.0779 3.25 3.25 0 0.7726-0.8251 0.092-3.5629-2.9371zm-34.975-32-4.9624-5.25 5.25 4.9624c4.8784 4.6112 20.629 18.927 19.883 18.927-0.1582 0-17.441-15.752-20.17-18.64zm-17.962-16.012c-18.939-17.61-28.167-26.372-26-24.684 3.0942 2.4091 37.428 34.021 38.059 35.042 1.105 1.788-0.2325 0.6391-12.059-10.358zm-50.5-60.167c0-0.275 0.9-0.9817 2-1.5704s38.851-21.509 38.851-21.234-37.751 21.645-38.851 22.234-2 0.8454-2 0.5704z" inkscape:label="fg" id="path134"/></g></g></svg>