<?xml version="1.0" encoding="utf-8" standalone="no"?>
<svg xmlns:dc="http://purl.org/dc/elements/1.1/" xmlns:cc="http://creativecommons.org/ns#" xmlns:rdf="http://www.w3.org/1999/02/22-rdf-syntax-ns#" xmlns:svg="http://www.w3.org/2000/svg" xmlns="http://www.w3.org/2000/svg" xmlns:sodipodi="http://sodipodi.sourceforge.net/DTD/sodipodi-0.dtd" xmlns:inkscape="http://www.inkscape.org/namespaces/inkscape" version="1.1" id="svg8" sodipodi:docname="020-g1062.svg" inkscape:version="1.0.2 (e86c870879, 2021-01-15)" width="97.073" height="89.705" viewBox="250.631 260.669 97.073 89.705">
  <sodipodi:namedview pagecolor="#ffffff" bordercolor="#666666" borderopacity="1" objecttolerance="10" gridtolerance="10" guidetolerance="10" inkscape:pageopacity="0" inkscape:pageshadow="2" inkscape:window-width="1680" inkscape:window-height="992" id="namedview169" showgrid="false" inkscape:zoom="0.18058824" inkscape:cx="2700" inkscape:cy="1700" inkscape:window-x="0" inkscape:window-y="0" inkscape:window-maximized="1" inkscape:current-layer="svg8" />
  <title id="title1515">Isometric Map Icons Vector Pack</title>
  <defs id="defs2">
    <rect x="37.828815" y="24.626251" width="1155.5488" height="108.05389" id="rect1641" />
    <rect x="37.828815" y="24.626251" width="1155.5488" height="108.05389" id="rect1641-3" />
    <rect x="37.828815" y="24.626251" width="1155.5488" height="108.05389" id="rect961" />
  </defs>
  <metadata id="metadata5">
    <rdf:RDF>
      <cc:Work rdf:about="">
        <dc:format>image/svg+xml</dc:format>
        <dc:type rdf:resource="http://purl.org/dc/dcmitype/StillImage" />
        <dc:title>Isometric Map Icons Vector Pack</dc:title>
        <cc:license rdf:resource="http://creativecommons.org/licenses/by-sa/4.0/" />
        <dc:creator>
          <cc:Agent>
            <dc:title>Vladimir Arabadzhi [Vladar]</dc:title>
          </cc:Agent>
        </dc:creator>
      </cc:Work>
      <cc:License rdf:about="http://creativecommons.org/licenses/by-sa/4.0/">
        <cc:permits rdf:resource="http://creativecommons.org/ns#Reproduction" />
        <cc:permits rdf:resource="http://creativecommons.org/ns#Distribution" />
        <cc:requires rdf:resource="http://creativecommons.org/ns#Notice" />
        <cc:requires rdf:resource="http://creativecommons.org/ns#Attribution" />
        <cc:permits rdf:resource="http://creativecommons.org/ns#DerivativeWorks" />
        <cc:requires rdf:resource="http://creativecommons.org/ns#ShareAlike" />
      </cc:License>
    </rdf:RDF>
  </metadata>
  <g id="g1062">
    <path style="opacity:1;fill:#ffffff;stroke:none;stroke-width:1.27;stroke-linecap:round;paint-order:stroke fill markers;stop-color:#000000" d="m 283.09046,302.92734 -1.09537,1.45256 -6.1618,2.4887 -2.48828,-2.53543 -2.79662,0.12637 -2.19056,3.27419 -0.93147,2.31137 -9.44747,6.20999 -4.80865,-2.30397 3.46444,-11.46868 3.46606,-13.93071 -5.92206,-4.53276 0.22124,-5.01843 8.8115,-4.68358 6.72303,-5.36469 6.78508,-2.85062 5.13266,-2.8937 3.12306,0.0456 13.63866,7.1877 16.86176,9.12164 14.55119,9.56427 14.76041,7.42399 0.37799,2.30997 -2.5704,5.86928 -5.46111,2.44025 4.41127,13.75596 2.09211,8.25333 0.39169,2.57905 -1.7516,1.94096 -7.99938,2.72838 -3.45655,-0.5152 -2.42821,-2.9297 -1.97808,2.82467 -1.50103,5.39072 -11.76433,6.63604 -5.44036,-3.33491 3.21847,-12.3009 2.42525,-13.45047 -9.3949,-4.08588 -8.79195,-5.24581 z" id="path1893" />
    <path style="fill:#000000;stroke-width:0.264583" d="m 311.07075,345.53115 c -1.32314,-0.79955 -1.38463,-0.88696 -1.38906,-1.9742 -0.006,-1.53948 1.81123,-10.53184 3.5669,-17.64781 1.76516,-7.15439 1.93775,-8.13669 1.3929,-7.92761 -0.48606,0.18651 -5.74147,-2.26369 -9.33006,-4.3499 -5.34353,-3.10644 -9.6155,-5.31826 -13.30402,-6.88819 -2.07847,-0.88465 -4.22794,-1.89184 -4.7766,-2.23819 -0.54867,-0.34636 -1.83939,-1.05368 -2.86828,-1.57182 l -1.8707,-0.94207 -0.59582,0.63423 c -0.32771,0.34882 -0.96782,0.71231 -1.42249,0.80773 -0.45467,0.0954 -1.55807,0.51833 -2.452,0.93977 -0.89393,0.42144 -1.78188,0.76626 -1.97322,0.76626 -0.19134,0 -0.80513,-0.44649 -1.36398,-0.99219 -0.92198,-0.90028 -1.14935,-0.99219 -2.45466,-0.99219 -1.33049,0 -1.51976,0.0812 -2.51914,1.08057 -0.59431,0.59431 -1.57832,2.08259 -2.1867,3.30729 -1.08574,2.18567 -1.15736,2.26253 -3.88426,4.16872 -1.52797,1.06809 -3.43297,2.26716 -4.23334,2.6646 l -1.45521,0.72262 -1.32291,-0.55009 c -2.40414,-0.99968 -2.38444,-0.9069 -1.07555,-5.06616 0.49985,-1.58838 1.6883,-5.98359 2.641,-9.76713 0.9527,-3.78354 2.02575,-7.88755 2.38454,-9.12001 0.35879,-1.23246 0.62886,-2.25488 0.60014,-2.27203 -0.71371,-0.42635 -4.52041,-3.31689 -5.14544,-3.90709 -0.79101,-0.74692 -0.8599,-0.94386 -0.8599,-2.45822 0,-0.90543 0.0744,-1.84001 0.16523,-2.07684 0.0909,-0.23683 1.66846,-1.17992 3.50573,-2.09576 2.94789,-1.46945 5.70346,-3.25349 10.57022,-6.84348 0.77489,-0.5716 3.01233,-1.72996 4.9721,-2.57412 1.95977,-0.84416 4.53867,-2.15572 5.73089,-2.91456 1.96334,-1.24966 2.2812,-1.36882 3.37193,-1.26401 0.79076,0.076 1.72416,0.44829 2.71841,1.0843 0.83278,0.53273 4.16219,2.27266 7.39868,3.86652 8.85789,4.3622 18.38896,9.67192 22.68556,12.63803 5.23478,3.61376 18.69276,11.24619 22.56727,12.79858 1.17999,0.47278 3.39347,1.90516 4.00003,2.58847 0.49166,0.55389 0.49296,0.63097 0.0461,2.75066 -0.82849,3.92957 -0.75742,3.75959 -1.61294,3.85786 -0.42878,0.0493 -1.77124,0.74936 -2.98323,1.55579 -1.66878,1.11037 -2.1611,1.57027 -2.02843,1.89483 0.62976,1.54052 1.57233,4.56637 2.23521,7.17546 0.42517,1.67348 1.48427,5.18949 2.35356,7.81333 1.6633,5.02047 2.312,7.89099 2.03378,8.99949 -0.21424,0.85357 -1.47287,1.61434 -3.32322,2.00869 -0.80298,0.17113 -2.13038,0.70927 -2.94979,1.19586 -1.54641,0.91832 -2.61409,1.07508 -4.82951,0.70913 -0.77617,-0.12821 -1.13229,-0.36228 -1.45521,-0.95647 -0.23515,-0.4327 -0.71167,-1.13562 -1.05894,-1.56206 l -0.63139,-0.77534 -0.79323,0.74254 c -1.24339,1.16392 -2.2302,2.88089 -2.9951,5.21124 -0.38739,1.18023 -0.95718,2.42366 -1.2662,2.76318 -1.16893,1.28431 -9.46995,5.88332 -10.54399,5.84169 -0.33066,-0.0128 -1.22418,-0.39977 -1.98562,-0.8599 z m 3.23671,-6.39284 c 0.64044,-2.7649 1.29652,-5.78193 1.45797,-6.70453 0.35101,-2.00583 1.10166,-4.49987 2.14901,-7.14003 0.87127,-2.19629 2.87511,-8.91994 2.87511,-9.64708 0,-0.41302 -0.24616,-0.34418 -1.78593,0.49942 -2.07546,1.1371 -2.4474,1.52277 -2.4474,2.53779 0,0.40886 -0.76667,3.74962 -1.70372,7.42391 -0.93704,3.67428 -1.8834,7.64358 -2.10303,8.82067 -0.21962,1.17708 -0.76399,3.66611 -1.20971,5.53118 -0.44572,1.86507 -0.74636,3.45508 -0.66808,3.53336 0.0783,0.0783 0.58565,0.3927 1.1275,0.69872 l 0.98517,0.55639 0.0793,-0.54136 c 0.0436,-0.29775 0.60334,-2.80355 1.24378,-5.56844 z m 2.77793,3.98177 c 0.65484,-0.46561 1.7609,-1.17283 2.45791,-1.57159 2.23933,-1.28113 3.01118,-2.14382 3.64668,-4.07579 0.85895,-2.61125 1.7273,-4.19728 3.10361,-5.66867 1.38319,-1.47874 2.18231,-1.96502 3.5046,-2.13258 1.67695,-0.21251 3.80804,1.08538 4.49152,2.73545 l 0.30944,0.74705 1.71614,-0.91042 c 0.94387,-0.50074 1.96568,-0.91043 2.27068,-0.91043 0.30501,0 0.94996,-0.14298 1.43324,-0.31774 0.73436,-0.26555 0.87837,-0.45023 0.87682,-1.12448 -0.003,-1.16207 -0.879,-4.61014 -1.98017,-7.79128 -0.52379,-1.51317 -1.49087,-4.66832 -2.14908,-7.01146 -0.65821,-2.34314 -1.44109,-4.94049 -1.73973,-5.7719 l -0.54298,-1.51164 -0.82799,0.4254 c -0.45539,0.23398 -1.48283,0.86605 -2.28319,1.40461 -0.80037,0.53856 -2.70537,1.54105 -4.23334,2.22775 -4.48498,2.01565 -4.92609,2.32883 -5.13688,3.64702 -0.30173,1.88692 -1.93964,7.30016 -3.2262,10.66248 -1.03841,2.71381 -5.13066,17.52939 -5.13066,18.57503 0,0.43126 1.62804,-0.33875 3.43958,-1.62681 z m 15.60867,-9.33958 c -0.004,-0.42419 -1.05527,-1.76722 -1.63596,-2.08946 -1.16754,-0.64788 -1.26656,-0.3506 -0.32141,0.96498 0.5693,0.79243 1.15266,1.32291 1.45477,1.32291 0.27739,0 0.50356,-0.0893 0.5026,-0.19843 z m -16.84805,-17.56262 c 0.31786,-0.1642 1.98559,-1.12933 3.70607,-2.14473 1.72048,-1.0154 4.63751,-2.56005 6.48229,-3.43255 1.84478,-0.8725 3.71133,-1.85007 4.14789,-2.17237 0.43657,-0.32231 1.92485,-1.25964 3.30729,-2.08295 1.38245,-0.82332 3.51906,-2.18882 4.74802,-3.03447 l 2.23446,-1.53753 0.44763,-1.77369 c 0.46414,-1.83913 0.45863,-1.84573 -0.81552,-0.97715 -0.3638,0.248 -2.32834,1.31722 -4.36563,2.37605 -6.2205,3.23296 -9.66252,5.26216 -12.56771,7.40913 -3.17048,2.34304 -8.46666,5.17311 -8.46666,4.52425 0,-0.12158 1.09925,-0.80324 2.44278,-1.51481 1.34352,-0.71156 3.69501,-2.2705 5.22552,-3.4643 1.53051,-1.1938 4.23775,-2.97974 6.0161,-3.96875 1.87347,-1.04192 3.18666,-1.93164 3.12233,-2.11546 -0.0639,-0.1827 0.0443,-0.25765 0.25518,-0.17673 0.20141,0.0773 1.17761,-0.3311 2.16934,-0.90755 0.99171,-0.57644 2.63656,-1.46945 3.65521,-1.98446 1.01864,-0.51501 2.06381,-1.09581 2.3226,-1.29067 0.54462,-0.41008 0.95431,-0.16191 -4.96844,-3.00967 -6.75317,-3.24704 -15.0785,-8.09927 -18.64926,-10.86931 -4.0192,-3.11792 -4.77279,-3.60341 -9.66115,-6.22416 -2.47386,-1.32627 -6.28386,-3.42777 -8.46667,-4.66998 -2.18281,-1.24222 -5.69145,-3.1369 -7.79698,-4.2104 -2.10552,-1.0735 -4.18912,-2.22608 -4.6302,-2.56129 -1.10753,-0.84167 -2.39974,-1.48165 -2.99169,-1.48165 -0.2729,0 -0.78482,0.31101 -1.13761,0.69112 -0.35279,0.38012 -1.56016,1.2273 -2.68306,1.88263 l -2.04162,1.19149 2.42943,1.71954 c 1.33619,0.94574 3.56461,2.43496 4.95204,3.30937 1.38743,0.87441 3.53464,2.27453 4.77157,3.11137 1.23692,0.83685 4.4343,2.73683 7.10528,4.22218 5.3444,2.97206 8.29259,4.76117 14.06138,8.53317 2.11005,1.37968 5.08662,3.22174 6.61459,4.09346 1.52796,0.87172 3.86765,2.25454 5.19929,3.07293 1.33165,0.81839 3.92126,2.27734 5.75469,3.24212 1.83343,0.96478 3.33351,1.79645 3.33351,1.84816 0,0.33039 -8.09261,-3.83318 -10.05416,-5.17276 -0.3638,-0.24845 -2.14974,-1.26047 -3.96875,-2.24895 -1.81901,-0.98847 -5.19668,-2.97853 -7.50593,-4.42235 -5.92894,-3.70699 -9.16464,-5.60532 -14.3222,-8.4026 -2.47385,-1.34173 -5.36327,-3.02125 -6.42093,-3.73226 -1.05766,-0.71101 -3.43891,-2.24907 -5.29166,-3.41791 -1.85276,-1.16883 -4.36435,-2.82099 -5.58131,-3.67146 l -2.21266,-1.54632 -1.83536,0.8251 c -1.75686,0.78981 -7.38359,4.77186 -7.52154,5.32301 -0.0725,0.28958 4.60012,3.43455 6.50617,4.37909 2.1541,1.06745 10.92169,6.35292 13.95908,8.41512 1.63837,1.11235 3.99098,2.63889 5.228,3.39231 1.23703,0.75342 4.48045,2.85276 7.2076,4.66521 5.82312,3.87002 10.00669,6.53249 12.76366,8.12295 2.47171,1.4259 7.30829,4.64837 7.54043,5.02397 0.0951,0.15392 -1.17561,-0.60463 -2.82385,-1.68566 -1.64823,-1.08104 -4.00882,-2.5548 -5.24575,-3.27505 -3.12016,-1.8168 -7.01754,-4.24817 -11.59136,-7.23122 -2.13772,-1.39422 -5.19645,-3.31101 -6.79718,-4.25953 -1.60073,-0.94851 -4.16058,-2.53407 -5.68854,-3.52345 -1.52797,-0.98937 -4.74266,-2.93011 -7.14375,-4.31275 -2.4011,-1.38263 -4.66329,-2.71815 -5.02709,-2.96781 -0.3638,-0.24967 -1.61396,-0.9638 -2.77812,-1.58697 -1.16417,-0.62317 -3.05794,-1.77274 -4.20839,-2.55461 -2.61328,-1.77603 -3.15894,-1.9306 -4.00606,-1.13478 -0.35449,0.33303 -2.09196,1.34359 -3.86106,2.24569 l -3.21654,1.64018 3.89761,2.30548 c 2.14368,1.26802 4.63189,2.63851 5.52935,3.04555 0.89747,0.40703 3.47722,1.8655 5.7328,3.24104 2.25557,1.37554 4.75588,2.89963 5.55625,3.38686 2.73727,1.66636 4.45824,2.77774 7.50549,4.847 2.1485,1.45894 4.79145,2.87965 8.95029,4.81119 5.24495,2.43598 12.04677,5.8878 12.78533,6.48836 0.14808,0.12042 1.27917,0.7722 2.51354,1.44841 1.24627,0.68273 1.89926,1.15403 1.46839,1.0598 -0.9714,-0.21241 -1.64065,-0.54094 -6.98629,-3.42946 -4.21918,-2.27984 -9.29157,-4.67867 -13.25865,-6.27026 -2.3321,-0.93564 -4.10645,-1.938 -8.2156,-4.64115 -4.09302,-2.69254 -13.56333,-8.30191 -16.66875,-9.87309 -1.38245,-0.69944 -3.9423,-2.10571 -5.68855,-3.12504 l -3.175,-1.85332 -0.17721,0.82977 c -0.0975,0.45637 -0.12834,0.90885 -0.0686,1.0055 0.39791,0.64384 9.66921,6.65757 18.10519,11.74374 8.25379,4.97633 13.89875,7.96025 18.12396,9.58028 2.44618,0.93792 10.19934,4.8476 13.49375,6.80448 1.01864,0.60508 3.13671,1.71763 4.7068,2.47233 2.28304,1.09739 2.88468,1.29414 3.00429,0.98243 0.21872,-0.56998 0.59788,-0.22051 0.43529,0.40122 -0.1568,0.5996 0.20082,0.67693 1.06528,0.23035 z m -53.90908,-15.73543 c 0.79367,-3.07061 1.73958,-6.3127 2.102,-7.20464 0.36243,-0.89193 0.65896,-1.79149 0.65896,-1.99901 0,-0.32008 -2.38848,-2.27904 -2.77874,-2.27904 -0.0724,0 -0.13168,0.36221 -0.13168,0.80491 0,1.7515 -3.16926,15.26447 -4.61279,19.66782 -0.5189,1.58286 -0.94346,2.9815 -0.94346,3.10809 0,0.12659 0.37965,0.38508 0.84366,0.57442 l 0.84366,0.34425 1.28767,-3.71693 c 0.70822,-2.04431 1.93704,-6.22925 2.73072,-9.29987 z m 0.26675,10.41159 3.139,-2.18282 0.6877,-1.8666 c 0.86891,-2.35842 2.10903,-4.16979 3.47253,-5.07211 1.82958,-1.21076 5.25843,-1.11353 6.43119,0.18236 0.43883,0.4849 0.48536,0.48559 1.5639,0.0233 0.61139,-0.26207 1.50013,-0.56182 1.97498,-0.66612 0.47484,-0.10429 0.82127,-0.31589 0.76983,-0.47021 -0.0514,-0.15432 -2.29017,-1.60726 -4.97495,-3.22875 -2.68479,-1.62149 -5.88504,-3.62257 -7.11167,-4.44685 l -2.23024,-1.4987 -0.46668,1.24582 c -1.20022,3.20402 -1.92935,5.37156 -3.6231,10.77081 -1.00431,3.20146 -2.13947,6.62451 -2.52258,7.60677 -0.38311,0.98227 -0.59585,1.78594 -0.47274,1.78594 0.1231,0 1.63638,-0.98227 3.36283,-2.18281 z" id="path1737" />
  </g>
</svg>