<svg width="125.100" height="203.306" inkscape:version="1.1.1 (3bf5ae0d25, 2021-09-20)" sodipodi:docname="isometric-map-icons-dungeon-1.svg" version="1.1" viewBox="1052.445 6294.808 125.100 203.306" xml:space="preserve" id="svg536" xmlns:inkscape="http://www.inkscape.org/namespaces/inkscape" xmlns:sodipodi="http://sodipodi.sourceforge.net/DTD/sodipodi-0.dtd" xmlns="http://www.w3.org/2000/svg" xmlns:svg="http://www.w3.org/2000/svg" xmlns:rdf="http://www.w3.org/1999/02/22-rdf-syntax-ns#" xmlns:cc="http://creativecommons.org/ns#"><defs id="defs538"/><sodipodi:namedview bordercolor="#ffffff" borderopacity="1" inkscape:current-layer="g8" inkscape:cx="3199.3086" inkscape:cy="2041.5679" inkscape:deskcolor="#cccccc" inkscape:pagecheckerboard="1" inkscape:pageopacity="0" inkscape:showpageshadow="0" inkscape:window-height="1080" inkscape:window-maximized="1" inkscape:window-width="1920" inkscape:window-x="0" inkscape:window-y="0" inkscape:zoom="0.13690458" pagecolor="#999999" showgrid="false" id="namedview2" inkscape:pageshadow="2"/><metadata id="metadata540"><rdf:rdf><cc:license rdf:about="http://creativecommons.org/licenses/by-sa/4.0/"><cc:permits rdf:resource="http://creativecommons.org/ns#Reproduction"/><cc:permits rdf:resource="http://creativecommons.org/ns#Distribution"/><cc:requires rdf:resource="http://creativecommons.org/ns#Notice"/><cc:requires rdf:resource="http://creativecommons.org/ns#Attribution"/><cc:permits rdf:resource="http://creativecommons.org/ns#DerivativeWorks"/><cc:requires rdf:resource="http://creativecommons.org/ns#ShareAlike"/></cc:license><cc:work rdf:about=""><cc:license rdf:resource="http://creativecommons.org/licenses/by-sa/4.0/"/></cc:work></rdf:rdf></metadata><g transform="translate(21.25 -166.07)" inkscape:groupmode="layer" inkscape:label="dungeon_features" id="g534"><g transform="matrix(3.7795 0 0 3.7795 -227.25 4237.6)" inkscape:label="painting" id="g514"><path d="m334.67 589.74 2.5236-0.55668 13.208 7.6937 12.754 6.972 1.9731 3.9658-1.091 15.404 0.45863 16.199-2.2889 1.6838-14.19-8.6453-12.397-6.6037-1.7177-3.1462 0.93728-18.51z" fill="#fff" stop-color="#000000" style="paint-order:stroke fill markers" inkscape:label="bg" id="path510"/><path d="m360.51 638.75c-1.494-0.7017-19.066-11.266-22.826-13.723-1.3491-0.88157-2.4029-1.6528-2.3419-1.7139 0.0611-0.0611 0.81486 0.24426 1.6751 0.67851 1.514 0.76427 1.5742 0.77329 1.8811 0.28191 0.17436-0.2792 0.51536-0.50763 0.75778-0.50763 0.36944 0 0.34535 0.10155-0.14889 0.62764-0.51873 0.55216-0.53758 0.64762-0.15677 0.79375 0.58943 0.22619 0.57485 0.23343 0.73083-0.36306 0.0761-0.29104 0.34182-0.52917 0.59046-0.52917 0.41968 0 0.42145 0.0467 0.0248 0.65215-0.40347 0.61578-0.39656 0.6686 0.12387 0.94713 0.43971 0.23533 0.65374 0.20216 1.0583-0.16399 0.54264-0.49108 0.71863-0.16509 0.19407 0.35947-0.1722 0.1722-0.2228 0.40338-0.11245 0.51373 0.11036 0.11036 0.31669-7e-3 0.45853-0.26017 0.38652-0.69066 0.79456-0.5553 0.60483 0.20064-0.18221 0.72596 0.32155 0.91917 0.89676 0.34396 0.17639-0.17639 0.3175-0.19991 0.3175-0.0529 0 0.14552-0.12229 0.38688-0.27176 0.53635-0.18596 0.18595-0.067 0.36505 0.37679 0.56725 0.51223 0.23339 0.71518 0.2152 0.96561-0.0866 0.46246-0.55723 0.84756-0.4708 0.53173 0.11933-0.19972 0.37318-0.167 0.58549 0.12795 0.83027 0.32223 0.26743 0.50079 0.23555 0.95564-0.17065 0.55431-0.49502 0.5576-0.49386 0.3636 0.12881-0.25669 0.82389 0.33554 1.2228 0.96701 0.65129 0.42295-0.38276 0.15914-0.59984-3.562-2.9311-2.2103-1.3847-4.3788-2.7924-4.819-3.128-0.79357-0.60529-0.80562-0.60615-1.459-0.10411-0.70591 0.54235-1.3203 0.67054-1.3203 0.27546 0-0.13338 0.32743-0.4868 0.72761-0.78537 0.5862-0.43735 0.63424-0.54448 0.24719-0.55123-0.55845-0.01-1.5541 0.47348-1.8203 0.88346-0.10122 0.1559-0.27982 0.18773-0.39687 0.0707-0.3364-0.33623-0.4206-32.977-0.0851-32.977 0.80615 0 11.059 5.5665 19.319 10.489 5.4831 3.2674 8.2006 5.1216 7.5065 5.1216-0.29265 0-2.3054-0.60211-3.0424-0.91013-0.33368-0.13945-0.45822 8e-3 -0.55308 0.65416-0.14876 1.0135 0.0875 1.127 1.7139 0.82319 1.5253-0.28495 1.6632 0.0828 0.19591 0.52237-0.84894 0.25435-1.0583 0.44151-1.0583 0.94597 0 0.53978 0.0725 0.59008 0.51177 0.355 0.62714-0.33564 1.6049-0.35925 1.6049-0.0388 0 0.12933-0.42414 0.31471-0.94254 0.41196-1.1082 0.2079-1.1759 0.9378-0.11441 1.2332l0.66007 0.18367-0.7276 0.0264c-0.57918 0.021-0.72761 0.15281-0.72761 0.64618 0 0.5683 0.0824 0.6065 0.99219 0.45967l0.99219-0.16015 0.23041-2.3117c0.12673-1.2715 0.32398-2.3118 0.43833-2.3118 0.46003 0 0.59168 5.8242 0.42301 18.713-0.0976 7.4544-0.24702 13.735-0.33214 13.957-0.21414 0.55804-0.80302 0.50204-2.3471-0.2232zm0.45284-1.8635c-0.61643-1.0028-1.7576-2.0079-2.2796-2.0079-0.0867 0-0.15762 0.28065-0.15762 0.62367 0 0.45571 0.37411 0.87879 1.3891 1.5709 0.76398 0.52096 1.4738 0.95468 1.5773 0.96383 0.10354 9e-3 -0.13459-0.50856-0.52917-1.1505zm0.85106-0.21575c-0.24274-0.76479-1.2467-2.3138-1.5023-2.3181-0.39137-6e-3 -0.18504 0.58232 0.60802 1.735 0.88921 1.2924 1.1795 1.4817 0.89432 0.58307zm-3.7135-1.4169c0.0883-0.23018 0.1606-0.45439 0.1606-0.49824 0-0.0847-3.1554-1.9937-3.2954-1.9937-0.0454 0-0.14514 0.23968-0.22175 0.53263-0.17172 0.65666 0.75501 1.277 1.2172 0.8148 0.46314-0.46314 0.71243-0.33745 0.71243 0.35921 0 0.35657 0.20836 0.76967 0.46302 0.918 0.63626 0.37058 0.77824 0.35103 0.96388-0.13274zm2.955-3.2573-0.67774-0.67774v0.70597c0 0.38829 0.11842 0.77917 0.26316 0.86862 0.14474 0.0894 0.38958 0.4239 0.5441 0.74322 0.26617 0.55004 0.25233 0.54773-0.26316-0.044-0.46811-0.53739-0.5441-0.55824-0.5441-0.14934 0 0.2614 0.26789 0.76165 0.59531 1.1117l0.59531 0.63638 0.0824-1.2585c0.0694-1.0596-0.0247-1.3656-0.59532-1.9362zm-2.133 1.8238c-0.0899-0.14552-0.30532-0.26276-0.47864-0.26053-0.18934 2e-3 -0.1567 0.10642 0.0818 0.26053 0.5083 0.32849 0.59989 0.32849 0.39688 0zm-1.1906-0.66146c-0.18115-0.21828-0.45661-0.39687-0.61213-0.39687s-0.0516 0.17481 0.23083 0.38846c0.6637 0.502 0.79331 0.50486 0.3813 8e-3zm-3.3563-0.23234c0.13579-0.35386-0.26605-0.95828-0.63709-0.95828-0.26719 0-0.53163 0.80047-0.3575 1.0822 0.22517 0.36434 0.83645 0.28817 0.99459-0.12393zm5.1813-0.89214c-0.0264-1.2245-0.0325-1.2336-0.23989-0.35418-0.19153 0.81232-0.11073 1.611 0.16299 1.611 0.0572 0 0.0918-0.56555 0.0769-1.2568zm-0.88385 0.26459c0.29652-0.49981 0.24799-4.4271-0.10381-8.4005-0.0421-0.47567-0.0811-0.46229-0.38579 0.13229-0.18643 0.3638-0.48444 1.1552-0.66225 1.7586-0.33193 1.1264-0.98998 1.6445-1.474 1.1605-0.18795-0.18795-0.14439-0.27326 0.13954-0.27326 0.26715 0 0.62061-0.58345 1.0018-1.6536 0.79217-2.2241 0.93637-3.5055 0.53229-4.7299-0.286-0.86657-0.27138-1.2566 0.0954-2.5455 0.23823-0.83714 0.49019-1.7602 0.55992-2.0512 0.0697-0.29104 0.0614 0.17476-0.0186 1.0351-0.0799 0.86035-0.23909 1.8128-0.35367 2.1167-0.16966 0.44986 0.29626 2.0076 0.60047 2.0076 0.0358 0 0.0885-0.68461 0.11698-1.5214 0.0285-0.83674 0.0744-1.6999 0.10201-1.9182 0.13606-1.0757-0.0564-2.6627-0.3043-2.5095-0.14913 0.0922-0.25409 0.0694-0.23325-0.0505 0.10203-0.58736-0.0777-1.1487-0.62969-1.9671-0.33271-0.49325-0.76903-1.3135-0.96962-1.8229-0.58592-1.4877-1.0566-1.8878-2.1161-1.7988l-0.93957 0.079 0.0897 2.0419c0.0674 1.5337-0.0416 2.4227-0.43799 3.5719-0.49022 1.4213-0.50211 1.6766-0.16729 3.5933 0.24403 1.397 0.27867 2.2784 0.10726 2.7292-0.40744 1.0716-0.29128 2.5501 0.2731 3.4757 0.28836 0.47295 0.40543 0.8599 0.26016 0.8599-0.14528 0-0.52504-0.53701-0.84391-1.1934-0.52796-1.0867-0.55205-1.3255-0.26959-2.6722 0.34154-1.6283 8e-3 -4.0726-0.55475-4.0712-0.16984 5.3e-4 -0.80736-0.26332-1.4167-0.58607-1.0705-0.56697-1.1398-0.57161-2.0505-0.1373-0.51843 0.24722-0.9426 0.59764-0.9426 0.77871 0 0.18108-0.50196 0.78806-1.1155 1.3488-0.86348 0.7893-1.2818 0.9952-1.8521 0.91151-0.65756-0.0965-0.73663-0.0278-0.73663 0.63981 0 0.66738 0.0926 0.74795 0.8599 0.74813 1.236 2.7e-4 4.036 1.3985 4.5946 2.2944 0.25655 0.41143 0.90009 1.1797 1.4301 1.7072 0.5675 0.56485 1.2143 1.6295 1.5735 2.5898 0.75304 2.0136 1.4524 2.9333 2.2306 2.9333 0.32787 0 0.87577 0.29765 1.2175 0.66145 0.34177 0.36381 0.89128 0.66146 1.2211 0.66146s0.67331 0.11906 0.76325 0.26459c0.23981 0.38802 0.4986 0.32453 0.80885-0.19844zm-5.1745-3.7639c0-0.142 0.23768-0.64802 0.52818-1.1245 0.59864-0.98185 0.67995-0.78894 0.21242 0.50399-0.29806 0.82427-0.7406 1.195-0.7406 0.62049zm-0.6808 3.5205c0.0932-0.24303 0.0167-0.54328-0.17013-0.66722-1.4533-0.96413-3.3664-2.0659-3.5871-2.0659-0.1473 0-0.34412 0.19884-0.43738 0.44186-0.19725 0.51403 0.38551 0.97891 0.75897 0.60545 0.42301-0.42301 0.74673-0.28462 0.6047 0.25852-0.15989 0.61141 0.55 0.98797 0.77198 0.4095 0.24369-0.63505 0.64735-0.44875 0.47921 0.22117-0.11716 0.46681-8e-3 0.68405 0.45798 0.90813 0.83832 0.40349 0.92759 0.39461 1.1218-0.1115zm8.2474-1.9014-0.68743-0.68744v0.61304c0 0.77237 1.1393 1.8146 1.2828 1.1734 0.0507-0.22638-0.21723-0.72095-0.59532-1.099zm-1.565-0.61678c-0.0845-0.21107-0.14715-0.14837-0.15985 0.15985-0.0115 0.27892 0.051 0.43519 0.13897 0.34727 0.0879-0.0879 0.0973-0.31613 0.0209-0.50712zm1.5604-1.5046-0.68277-0.68277v0.60001c0 0.33001 0.26789 0.96446 0.59531 1.4099l0.59531 0.80988 0.0875-0.72712c0.061-0.50709-0.11915-0.93373-0.59532-1.4099zm-8.4281 1.3557c-0.23043-0.25466-0.67269-1.0583-0.98278-1.7859-0.3101-0.7276-0.91722-1.602-1.3492-1.9431-0.43194-0.34113-1.008-1.0555-1.2802-1.5875-0.94211-1.8414-4.7968-3.0713-6.7178-2.1433-0.55827 0.26968-0.56045 0.26519-0.0643-0.13229 0.28248-0.22631 0.66404-0.41147 0.84791-0.41147 0.38776 0 0.76719-1.6691 0.48371-2.1278-0.13882-0.22461 0.0341-0.26047 0.62754-0.13012 0.64968 0.14269 1.0076 0.0362 1.7299-0.51475 1.1578-0.88306 1.2201-1.0699 0.91562-2.745-0.22192-1.221-0.17033-1.5851 0.44127-3.1139 0.62141-1.5533 0.66362-1.8662 0.41078-3.0451-0.15498-0.72267-0.28179-2.0272-0.28179-2.8989 0-1.4919-0.0603-1.6441-1.0276-2.5922-0.56519-0.554-1.1112-1.2704-1.2132-1.5921-0.11237-0.35405-0.35938-0.55173-0.62602-0.50099-0.3253 0.0619-0.47713 0.46348-0.58088 1.5364-0.0772 0.79893-0.28561 1.7127-0.46302 2.0305-0.17741 0.31785-0.32256 1.219-0.32256 2.0025s-0.17424 2.0117-0.38721 2.7294c-0.52546 1.7707-0.47488 6.6768 0.0755 7.3241 0.21654 0.25467 0.27077 0.46303 0.12051 0.46303-0.55197 0-0.90734-0.79521-0.85102-1.9043 0.0829-1.6319-0.24424-2.9741-0.79615-3.2668-0.26234-0.1391-0.83204-0.45555-1.266-0.70322l-0.78901-0.45032 0.0438 4.2868c0.0417 4.0899 0.31949 5.742 0.96532 5.742 0.11318 0 0.59686 0.35719 1.0748 0.79375 0.47798 0.43656 1.0174 0.79375 1.1988 0.79375 0.41947 0 2.4169 1.0347 2.6144 1.3543 0.082 0.13265 0.55764 0.4119 1.057 0.62055 0.49937 0.20866 0.90795 0.51725 0.90795 0.68576 0 0.16852 0.18188 0.2366 0.40418 0.1513 0.2293-0.088 0.59816 0.0715 0.85255 0.36857 0.2466 0.28801 0.57975 0.52366 0.74033 0.52366 0.16057 0 0.56814 0.29399 0.9057 0.6533 0.33756 0.35932 0.69728 0.60168 0.79938 0.53858s0.52379 0.23822 0.93708 0.66961c0.78991 0.82448 1.5677 1.1204 0.84466 0.32132zm-1.3828-0.0661c-0.0899-0.14553-0.30532-0.26276-0.47863-0.26054-0.18934 2e-3 -0.15671 0.10643 0.0818 0.26054 0.50829 0.32848 0.59989 0.32848 0.39687 0zm-1.7198-1.1906c-0.18116-0.21828-0.49713-0.39687-0.70216-0.39687s-0.44131-0.1786-0.52508-0.39688c-0.0838-0.21828-0.40744-0.39463-0.7193-0.39188-0.44024 4e-3 -0.30081 0.17754 0.62362 0.77677 1.3217 0.85673 1.8233 1.0118 1.3229 0.40886zm9.9703-0.71107c-0.0845-0.21106-0.14715-0.14837-0.15985 0.15986-0.0115 0.27891 0.051 0.43518 0.13897 0.34726 0.0879-0.0879 0.0973-0.31612 0.0209-0.50712zm2.2005-0.70167c0-0.54461-0.18196-0.83419-0.66145-1.0527-0.5939-0.27059-0.66146-0.24328-0.66146 0.26743 0 0.57519 0.6878 1.5365 1.0993 1.5365 0.12296 0 0.22357-0.33807 0.22357-0.75128zm-15.076-0.43295c-0.18408-0.2218-0.55722-0.40327-0.82921-0.40327s-0.64324-0.23812-0.825-0.52916c-0.18176-0.29105-0.50081-0.52917-0.70901-0.52917s-0.58939-0.19081-0.84709-0.42403c-0.2577-0.23321-0.61087-0.37658-0.78483-0.3186-0.17396 0.058 0.68236 0.70672 1.9029 1.4416 2.2203 1.3369 2.72 1.519 2.0922 0.76259zm12.959-0.41888c0-0.29963-0.11387-0.47441-0.25303-0.3884-0.13917 0.086-0.18596 0.33116-0.10399 0.54478 0.20988 0.54692 0.35702 0.48247 0.35702-0.15638zm2.1167-0.73567c0-0.26768-0.29765-0.62232-0.66145-0.78808-0.87474-0.39855-0.92494 0.23269-0.0661 0.83176 0.7567 0.52784 0.7276 0.52959 0.7276-0.0437zm-2.1167-1.286c0-0.53207-0.0765-0.63789-0.29972-0.41466-0.16484 0.16484-0.22811 0.48631-0.14059 0.71438 0.2422 0.63118 0.44031 0.49633 0.44031-0.29972zm2.0878-1.6669c0.0209-1.0186-0.0733-1.8521-0.20947-1.8521-0.13614 0-0.43587-0.0723-0.66605-0.1606-0.70738-0.27144-0.55887 1.6731 0.1768 2.315l0.59531 0.51941-0.59531-0.1641c-0.73359-0.20222-0.83567 0.49901-0.13229 0.90869 0.75366 0.43897 0.79124 0.36814 0.83101-1.5663zm-20.079 1.3229c0-0.14552-0.12609-0.26458-0.2802-0.26458s-0.20661 0.11906-0.11667 0.26458c0.0899 0.14552 0.21602 0.26459 0.28019 0.26459 0.0642 0 0.11668-0.11907 0.11668-0.26459zm17.319-0.51088c0.0837-0.13547 0.0312-0.32109-0.11668-0.41249-0.14789-0.0914-0.2689 0.0194-0.2689 0.2463 0 0.46475 0.15877 0.53318 0.38558 0.16619zm-18.454-0.34901c-0.0667-0.1819-0.26547-0.29755-0.44171-0.25699-0.17624 0.0406-0.38488-0.17267-0.46364-0.47384-0.0788-0.30117-0.26942-0.50551-0.4237-0.45408-0.54806 0.18269-0.43471 0.59571 0.28225 1.0284 0.89699 0.54137 1.2048 0.58739 1.0468 0.15649zm19.022-1.15c-0.0855-0.22271-0.2756-0.33061-0.42255-0.2398-0.17612 0.10885-0.16164 0.36229 0.0425 0.74367 0.33719 0.63006 0.65403 0.21003 0.38008-0.50387zm-21.326-0.5337c0-0.72805-0.0155-0.73356-0.9136-0.32437-0.9879 0.45012-0.90161 1.2222 0.11985 1.0723 0.62766-0.0921 0.79375-0.24862 0.79375-0.74793zm0.84666-0.68434c-0.24694-0.24695-0.3175-0.17639-0.3175 0.3175s0.0706 0.56444 0.3175 0.3175c0.24695-0.24695 0.24695-0.38806 0-0.635zm-1.1112-0.94391c0-0.24028-0.15575-0.32294-0.41851-0.22211-0.23018 0.0883-0.52784 0.1606-0.66146 0.1606s-0.24294 0.23557-0.24294 0.52349c0 0.46238 0.0772 0.48831 0.66146 0.22212 0.3638-0.16576 0.66145-0.4736 0.66145-0.6841zm23.764-1.2458c-0.046-0.0401-0.35159-0.15523-0.67901-0.25587-0.53686-0.16502-0.59531-0.0943-0.59531 0.72045 0 0.68119 0.14645 0.9693 0.59531 1.1712 0.54819 0.24652 0.60194 0.19527 0.67901-0.64757 0.046-0.5034 0.046-0.94808 0-0.98816zm-22.78-0.33342c-0.0608-0.40218-0.1122-0.13593-0.11418 0.59168-2e-3 0.7276 0.0478 1.0567 0.11057 0.73124 0.0628-0.32542 0.0644-0.92073 4e-3 -1.3229zm-1.4021 0.82795c0.24372-0.0935 0.41851-0.46995 0.41851-0.90127 0-0.61041-0.0931-0.71633-0.52916-0.60229-0.37483 0.098-0.52917 0.3609-0.52917 0.90127 0 0.82579 0.0166 0.84144 0.63982 0.60229zm15.499-4.301c0.22918-0.60415 0.28343-1.5297 0.169-2.8834-0.20059-2.373-9e-3 -2.7091 1.5425-2.7091 1.3429 0 1.7441 0.38078 2.509 2.3812 0.30602 0.80036 0.71431 1.7382 0.90733 2.084 0.31775 0.56935 0.35093 0.45205 0.35093-1.2403 0-1.028 0.15531-2.2441 0.34513-2.7023 0.32633-0.78783 0.30324-0.86745-0.42411-1.4621-0.42308-0.34591-1.0226-0.63322-1.3322-0.63845-0.30961-5e-3 -0.71005-0.1868-0.88988-0.40348-0.17983-0.21667-0.42819-0.33139-0.55191-0.25493-0.12373 0.0765-0.46742-0.10344-0.76377-0.39979s-0.69896-0.53881-0.89469-0.53881c-0.19572 0-0.57137-0.23813-0.83475-0.52917-0.26339-0.29104-0.63803-0.52917-0.83252-0.52917s-0.49492-0.22624-0.66761-0.50276c-0.17269-0.27653-0.46402-0.44519-0.6474-0.37482-0.18339 0.0704-0.54581-0.12011-0.8054-0.42328-0.25958-0.30317-0.67944-0.55122-0.93303-0.55122-0.25358 0-0.59155-0.24385-0.75106-0.54188-0.19689-0.36789-0.45002-0.4911-0.78834-0.38372-0.34733 0.11024-0.6291-0.0414-0.92989-0.50048-0.23736-0.36226-0.57892-0.60211-0.75902-0.533-0.1801 0.0691-0.54676-0.11667-0.81479-0.41284s-0.64479-0.5385-0.83724-0.5385c-0.4754 0-3.3363-1.5423-3.6844-1.9862-0.1539-0.19628-0.40118-0.27615-0.54951-0.1775-0.4275 0.28434-1.2065 2.9771-0.99887 3.4528 0.10342 0.23691 0.22796 1.3237 0.27676 2.4151s0.10245 2.1034 0.11923 2.249c0.0734 0.63667-0.29046 5.2146-0.43281 5.4449-0.0866 0.14011 0.24755 0.42397 0.74255 0.63079 0.495 0.20683 1.0539 0.56152 1.2421 0.78821 0.48444 0.58372 0.80596 0.51096 0.8093-0.18315 2e-3 -0.32743 0.18017-1.1798 0.39687-1.8941 0.21671-0.71435 0.39401-2.031 0.39401-2.926 0-1.0211 0.14469-1.8185 0.38846-2.1408 0.22279-0.29455 0.39205-1.102 0.39688-1.8934 7e-3 -1.088 0.11664-1.4377 0.52019-1.6536 0.84138-0.45029 1.334-0.31563 1.6597 0.45371 0.16941 0.40018 0.7399 1.1443 1.2678 1.6536 0.95171 0.91829 0.96253 0.95347 1.2926 4.2032 0.32039 3.1541 0.31116 3.3352-0.24577 4.8244-0.44435 1.1882-0.53634 1.8295-0.39634 2.763 0.14972 0.99837 0.26164 1.1835 0.62599 1.0355 1.7447-0.70876 1.8683-0.71186 3.0166-0.0757l1.1312 0.6267 0.16179-1.0662c0.089-0.5864 0.31368-1.4666 0.49932-1.956zm8.7316 2.345c0-0.67028-0.10289-0.79375-0.66145-0.79375-0.51657 0-0.66146 0.13523-0.66146 0.61736 0 0.744 0.1953 0.97014 0.83784 0.97014 0.36258 0 0.48507-0.20045 0.48507-0.79375zm-23.812-0.69339c0-0.44973-0.11884-0.54891-0.52916-0.44161-0.29104 0.0761-0.52917 0.33711-0.52917 0.57999 0 0.26522 0.21136 0.44161 0.52917 0.44161 0.36823 0 0.52916-0.17639 0.52916-0.57999zm0.97449-0.14997c-0.0845-0.21107-0.14715-0.14838-0.15985 0.15985-0.0115 0.27891 0.051 0.43518 0.13897 0.34726 0.0879-0.0879 0.0973-0.31612 0.0209-0.50711zm22.928-0.94258c0.069-0.25466 0.13872-1.0881 0.15498-1.8521l0.0296-1.3891h-0.9309c-0.71173 0-0.92995 0.10902-0.92685 0.46302 5e-3 0.5791 0.2928 0.98419 0.72355 1.0186 0.77184 0.0617 0.88228 0.12014 0.72095 0.38118-0.0936 0.15144-0.39828 0.20295-0.67707 0.11446-0.43482-0.138-0.5069-0.0267-0.5069 0.78299 0 0.82343 0.0821 0.94387 0.64363 0.94387 0.38881 0 0.69327-0.18331 0.76904-0.46302zm-23.902-0.49133c0-0.52027-0.10284-0.6503-0.41851-0.52917-0.23018 0.0883-0.46831 0.1606-0.52917 0.1606-0.0609 0-0.11065 0.23813-0.11065 0.52917 0 0.35278 0.17639 0.52917 0.52917 0.52917 0.39384 0 0.52916-0.17639 0.52916-0.68977zm0.96898-0.43471c-0.0734-0.1819-0.13345-0.0331-0.13345 0.33073 0 0.3638 0.06 0.51263 0.13345 0.33073 0.0734-0.18191 0.0734-0.47956 0-0.66146zm20.373-0.26459c-0.0734-0.1819-0.13345-0.0331-0.13345 0.33073 0 0.3638 0.06 0.51263 0.13345 0.33073 0.0734-0.1819 0.0734-0.47956 0-0.66146zm-21.342-0.85989c0-0.44531-0.0485-0.46321-0.63982-0.23628-0.59118 0.22686-0.52018 0.63315 0.11066 0.63315 0.29398 0 0.52916-0.17639 0.52916-0.39687zm21.669-2.3307c0.0173-0.83373-0.0702-1.2127-0.25383-1.0992-0.15411 0.0953-0.25097 0.4297-0.21523 0.74322 0.0357 0.31352-0.0248 0.83793-0.1345 1.1654-0.10971 0.32743-0.11091 0.86321-3e-3 1.1906l0.1968 0.59531 0.19153-0.66146c0.10534-0.3638 0.2034-1.234 0.2179-1.9338zm-21.669 0.97694c0-0.20131-0.23812-0.36601-0.52916-0.36601-0.34412 0-0.52917 0.17638-0.52917 0.50439 0 0.37414 0.13666 0.46866 0.52917 0.36602 0.29104-0.0761 0.52916-0.30309 0.52916-0.5044zm0-2.3504c0-1.2788-0.0641-1.4552-0.52916-1.4552-0.71678 0-0.78239 1.5829-0.0661 1.5959 0.44097 8e-3 0.44097 0.0252 0 0.35989-0.62009 0.47072-0.58656 0.95461 0.0661 0.95461 0.46502 0 0.52916-0.17639 0.52916-1.4552zm0.96898-0.46302c-0.0734-0.1819-0.13345-0.0331-0.13345 0.33073 0 0.3638 0.06 0.51263 0.13345 0.33073 0.0734-0.1819 0.0734-0.47956 0-0.66146zm0-1.8521c-0.0734-0.1819-0.13345-0.0331-0.13345 0.33073 0 0.3638 0.06 0.51263 0.13345 0.33073 0.0734-0.18191 0.0734-0.47956 0-0.66146zm20.146 0.20737c-0.0771-0.24593-4.1812-2.3442-4.1812-2.1377 0 0.4573 0.40474 0.93816 0.78966 0.93816 0.25765 0 0.61668 0.17859 0.79784 0.39687 0.18115 0.21829 0.53834 0.39688 0.79375 0.39688 0.2554 0 0.61683 0.1837 0.80316 0.40822 0.35893 0.43248 1.1325 0.43061 0.99675-2e-3zm-21.114-0.5381c0-0.48507-0.14111-0.66146-0.52916-0.66146-0.38806 0-0.52917 0.17639-0.52917 0.66146s0.14111 0.66146 0.52917 0.66146c0.38805 0 0.52916-0.17639 0.52916-0.66146zm1.1793-0.64318c0.0837-0.13546 0.0312-0.32108-0.11668-0.41249-0.14789-0.0914-0.2689 0.0194-0.2689 0.2463 0 0.46475 0.15877 0.53318 0.38558 0.16619zm19.299-1.6493c-0.0752-0.12161-0.24869-0.2211-0.38562-0.2211-0.2917 0-0.33857 1.4097-0.0562 1.692 0.22775 0.22775 0.64116-1.1484 0.44186-1.4709zm-20.478 0.57265c0-0.61736-0.11759-0.79375-0.52916-0.79375-0.69 0-0.74776 1.227-0.0661 1.4051 0.25466 0.0665 0.49279 0.13481 0.52917 0.15169 0.0364 0.0169 0.0661-0.32649 0.0661-0.76305zm16.669-0.15381c0-0.0534-0.37029-0.28867-0.82287-0.52271-0.81551-0.42172-0.85491-0.2878-0.17492 0.59464 0.20773 0.26958 0.99779 0.21262 0.99779-0.0719zm2.5199-0.3953c0.0959-0.30201 0.13365-0.58689 0.084-0.63307-0.0497-0.0462-1.5035-0.93553-3.2308-1.9763l-3.1405-1.8924 0.18826 1.0035c0.23977 1.2781 0.75192 1.641 0.94069 0.66665 0.11818-0.60997 0.16884-0.64606 0.33073-0.23565 0.10515 0.26657 0.19118 0.71305 0.19118 0.99219s0.11906 0.50753 0.26458 0.50753 0.26458-0.17859 0.26458-0.39688c0-0.21828 0.11907-0.39687 0.26459-0.39687s0.26458 0.28492 0.26458 0.63315c0 0.84099 0.68514 1.0925 0.92802 0.34073 0.17915-0.55455 0.19106-0.55641 0.30614-0.0478 0.2869 1.2679 0.36845 1.3537 0.76911 0.80933 0.36225-0.49222 0.37798-0.48488 0.37798 0.17639 0 0.61011 0.25851 0.91028 0.84207 0.97777 0.0993 0.0115 0.25903-0.22621 0.35488-0.52822zm-4.372-0.48092c0-0.12995-0.17859-0.30481-0.39687-0.38857-0.4033-0.15476-0.54187 0.12708-0.22049 0.44846 0.25286 0.25286 0.61736 0.2175 0.61736-0.0599zm-14.817-0.7912c0-0.27579-0.23629-0.5601-0.52916-0.63669-0.42091-0.11007-0.52917-8e-3 -0.52917 0.49831 0 0.4603 0.1466 0.63669 0.52917 0.63669 0.34185 0 0.52916-0.17639 0.52916-0.49831zm13.472-0.12731c-0.0606-0.053-0.4079-0.25114-0.77171-0.44019-0.60505-0.31443-0.63049-0.3062-0.29833 0.0965 0.19972 0.24211 0.54699 0.44019 0.7717 0.44019 0.22472 0 0.35897-0.0434 0.29834-0.0965zm-1.9623-0.96188c-0.0899-0.14552-0.28259-0.26458-0.42811-0.26458s-0.191 0.11906-0.10106 0.26458c0.0899 0.14552 0.28259 0.26458 0.42811 0.26458s0.191-0.11906 0.10106-0.26458zm-11.509-0.11065c0-0.0609 0.0664-0.28379 0.14764-0.49539 0.0996-0.25967-0.0724-0.4268-0.52917-0.51412-0.57146-0.10924-0.6768-0.0321-0.6768 0.49539 0 0.44838 0.1494 0.62477 0.52917 0.62477 0.29104 0 0.52916-0.0498 0.52916-0.11065zm9.7517-0.97671c-0.57072-0.36162-0.85071-0.27178-0.49369 0.1584 0.17983 0.21668 0.44525 0.32086 0.58981 0.23152 0.15967-0.0987 0.12194-0.25175-0.0961-0.38992zm2.8339-0.32127c0.0167-0.81769-0.11585-0.95588-1.9315-2.0145-1.0721-0.6251-1.986-1.0929-2.0308-1.0395-0.0448 0.0534-0.0255 0.54646 0.043 1.0958 0.14673 1.1775 1.1278 1.9958 1.041 0.86828-0.0743-0.96463 0.45824-0.83226 0.61156 0.15201 0.16375 1.0512 0.79375 1.3562 0.79375 0.38422 0-0.37593 0.11907-0.6835 0.26459-0.6835s0.26458 0.40679 0.26458 0.90399c0 0.77741 0.21724 1.1034 0.79375 1.191 0.0728 0.0111 0.14034-0.37495 0.15017-0.8578zm-12.321-0.84033c0-0.3638-0.10933-0.66146-0.24295-0.66146s-0.43127-0.0723-0.66146-0.1606c-0.31376-0.1204-0.41851 7e-3 -0.41851 0.50977 0 0.60284 0.24313 0.80674 1.1245 0.94306 0.10914 0.0169 0.19844-0.26697 0.19844-0.63077zm7.8052 0.39688c-0.0899-0.14552-0.28259-0.26459-0.42811-0.26459s-0.191 0.11907-0.10106 0.26459c0.0899 0.14552 0.28258 0.26458 0.4281 0.26458s0.191-0.11906 0.10107-0.26458zm0.2448-2.6138c0.0932-0.15072-0.19378-0.46183-0.63762-0.69136l-0.807-0.41731 0.17706 1.1336c0.2092 1.3395 0.68348 1.7894 0.92818 0.88053 0.0935-0.34731 0.24623-0.75479 0.33938-0.90551zm-3.0229 1.1679c0-0.0676-0.26789-0.26573-0.59531-0.4402-0.53981-0.28763-0.56146-0.27616-0.23219 0.12299 0.33809 0.40984 0.8275 0.59745 0.8275 0.31721zm-5.0271-0.66146c0-0.44359-0.68578-1.0676-1.1732-1.0676-0.39289 0-0.10387 1.2961 0.31333 1.4051 0.81057 0.21183 0.8599 0.19247 0.8599-0.33747zm0.97449-0.3235c-0.0845-0.21107-0.14716-0.14837-0.15986 0.15985-0.0115 0.27891 0.0511 0.43518 0.13897 0.34727 0.0879-0.0879 0.0973-0.31613 0.0209-0.50712zm5.2179-0.53386c0.16154-0.89393 0.10937-1.0154-0.59193-1.3781l-0.7691-0.39771 0.2634 1.2458c0.14486 0.68517 0.39381 1.3286 0.55322 1.4298 0.35993 0.22856 0.33223 0.27434 0.54441-0.89981zm-1.7814-0.87172-0.10232-1.1906-2.8635-1.7198c-1.5749-0.9459-2.9016-1.7198-2.9481-1.7198-0.0465 0-0.0846 0.95425-0.0846 2.1206 0 2.1087 5e-3 2.1235 0.85989 2.6438 0.93737 0.57035 1.3223 0.27228 0.63256-0.48984-0.4919-0.54354-1.3121-2.4264-1.1344-2.6041 0.0685-0.0684 0.44393 0.42067 0.83439 1.0869 0.39046 0.66627 0.74351 1.2114 0.78457 1.2114 0.0411 0 0.0271-0.56555-0.031-1.2568-0.10562-1.2562-0.10551-1.2564 0.26881-0.46302 0.20596 0.43656 0.50371 1.1212 0.66166 1.5214 0.4238 1.0737 0.92533 0.93412 0.71286-0.19844-0.0983-0.52382-0.0659-0.92604 0.0745-0.92604 0.28886 0 0.56946 0.63761 0.56946 1.294 0 0.25133 0.17845 0.68807 0.39655 0.97055 0.36522 0.47302 0.38469 0.41954 0.24651-0.67704-0.1397-1.1087-0.12169-1.1556 0.26155-0.68163 0.22637 0.27994 0.48587 0.90502 0.57668 1.3891 0.2374 1.2654 0.40371 1.0835 0.2839-0.31053zm-3.7066 0.0661c-0.0734-0.1819-0.13345-0.0331-0.13345 0.33073 0 0.36381 0.06 0.51263 0.13345 0.33073 0.0734-0.1819 0.0734-0.47956 0-0.66146zm1.1477 0.59532c0-0.14552-0.12609-0.26459-0.2802-0.26459s-0.20661 0.11907-0.11667 0.26459c0.0899 0.14552 0.21602 0.26458 0.28019 0.26458 0.0642 0 0.11668-0.11906 0.11668-0.26458z" stroke-width=".26458" inkscape:label="fg" id="path512"/></g></g></svg>